<?xml version="1.0" encoding="utf-8"?>
<!-- Generator: Adobe Illustrator 27.7.0, SVG Export Plug-In . SVG Version: 6.00 Build 0)  -->
<svg version="1.1" id="Layer_1" xmlns="http://www.w3.org/2000/svg" xmlns:xlink="http://www.w3.org/1999/xlink" x="0px" y="0px"
	 viewBox="0 0 33 19" style="enable-background:new 0 0 33 19;" xml:space="preserve">
<style type="text/css">
	.st0{fill:#FFA877;}
</style>
<path class="st0" d="M32.3,3.8L17.7,18.5c-0.2,0.2-0.4,0.3-0.6,0.4C16.9,19,16.7,19,16.5,19s-0.4,0-0.7-0.1
	c-0.2-0.1-0.4-0.2-0.6-0.4L0.6,3.8C0.2,3.4,0,2.8,0,2.2s0.2-1.1,0.7-1.6C1.1,0.2,1.6,0,2.2,0c0.6,0,1.1,0.2,1.5,0.7l12.8,12.9
	L29.3,0.7C29.7,0.2,30.2,0,30.8,0c0.6,0,1.1,0.2,1.5,0.7C32.8,1.1,33,1.6,33,2.2S32.8,3.3,32.3,3.8z"/>
</svg>
