<svg width="33" height="19" viewBox="0 0 33 19" fill="none" xmlns="http://www.w3.org/2000/svg">
<path d="M32.347 3.76498L17.719 18.5184C17.5449 18.6935 17.3562 18.8173 17.153 18.8897C16.9499 18.9632 16.7322 19 16.5 19C16.2678 19 16.0501 18.9632 15.847 18.8897C15.6438 18.8173 15.4551 18.6935 15.281 18.5184L0.609498 3.76498C0.203165 3.35638 -7.0613e-07 2.84562 -7.32921e-07 2.23272C-7.59712e-07 1.61982 0.217677 1.09447 0.653033 0.656683C1.08839 0.218895 1.59631 1.31371e-06 2.17678 1.28834e-06C2.75725 1.26296e-06 3.26517 0.218895 3.70053 0.656683L16.5 13.5276L29.2995 0.656682C29.7058 0.24808 30.2062 0.0437782 30.8006 0.0437782C31.3961 0.0437781 31.9116 0.262672 32.347 0.70046C32.7823 1.13825 33 1.649 33 2.23272C33 2.81644 32.7823 3.32719 32.347 3.76498Z" fill="#883D13"/>
</svg>
