<svg width="30" height="30" viewBox="0 0 30 30" fill="none" xmlns="http://www.w3.org/2000/svg">
<path d="M15 0.363281C13.0302 0.363281 11.0796 0.751268 9.25975 1.50509C7.43986 2.25891 5.78628 3.3638 4.3934 4.75668C1.58035 7.56973 0 11.385 0 15.3633C0 21.9933 4.305 27.6183 10.26 29.6133C11.01 29.7333 11.25 29.2683 11.25 28.8633V26.3283C7.095 27.2283 6.21 24.3183 6.21 24.3183C5.52 22.5783 4.545 22.1133 4.545 22.1133C3.18 21.1833 4.65 21.2133 4.65 21.2133C6.15 21.3183 6.945 22.7583 6.945 22.7583C8.25 25.0383 10.455 24.3633 11.31 24.0033C11.445 23.0283 11.835 22.3683 12.255 21.9933C8.925 21.6183 5.43 20.3283 5.43 14.6133C5.43 12.9483 6 11.6133 6.975 10.5483C6.825 10.1733 6.3 8.61328 7.125 6.58828C7.125 6.58828 8.385 6.18328 11.25 8.11828C12.435 7.78828 13.725 7.62328 15 7.62328C16.275 7.62328 17.565 7.78828 18.75 8.11828C21.615 6.18328 22.875 6.58828 22.875 6.58828C23.7 8.61328 23.175 10.1733 23.025 10.5483C24 11.6133 24.57 12.9483 24.57 14.6133C24.57 20.3433 21.06 21.6033 17.715 21.9783C18.255 22.4433 18.75 23.3583 18.75 24.7533V28.8633C18.75 29.2683 18.99 29.7483 19.755 29.6133C25.71 27.6033 30 21.9933 30 15.3633C30 13.3935 29.612 11.4429 28.8582 9.62303C28.1044 7.80315 26.9995 6.14956 25.6066 4.75668C24.2137 3.3638 22.5601 2.25891 20.7403 1.50509C18.9204 0.751268 16.9698 0.363281 15 0.363281V0.363281Z" fill="#883D13"/>
</svg>
