<svg width="53" height="50" viewBox="0 0 53 50" fill="none" xmlns="http://www.w3.org/2000/svg">
<path d="M43.6274 0H9.37257C4.67063 0 0.858948 3.81168 0.858948 8.51362V41.4864C0.858948 46.1883 4.67063 50 9.37257 50H43.6274C48.3293 50 52.141 46.1883 52.141 41.4864V8.51362C52.141 3.81168 48.3293 0 43.6274 0Z" fill="#330000"/>
<path d="M25.7094 30.006H17.7627L16.1457 35.0287C16.1237 35.1203 16.0704 35.2013 15.9951 35.2579C15.9197 35.3144 15.827 35.3429 15.7329 35.3384H11.7078C11.4785 35.3384 11.3981 35.2122 11.467 34.9598L18.3475 15.1444C18.4162 14.9381 18.4851 14.7031 18.5538 14.4393C18.6439 13.9802 18.69 13.5138 18.6914 13.0461C18.6867 13.0134 18.6897 12.98 18.7002 12.9487C18.7106 12.9173 18.7282 12.8888 18.7516 12.8654C18.7749 12.842 18.8034 12.8244 18.8348 12.8139C18.8661 12.8035 18.8995 12.8004 18.9322 12.8051H24.4021C24.5624 12.8051 24.6541 12.8626 24.6774 12.9774L32.4865 34.9942C32.5554 35.2238 32.4865 35.3386 32.2801 35.3384H27.8078C27.731 35.3469 27.6537 35.3271 27.5904 35.2828C27.5271 35.2385 27.4821 35.1727 27.4638 35.0976L25.7094 30.006ZM19.0011 25.6715H24.4366L24.3591 25.4157L24.2347 25.0106L24.1459 24.7262L24.0043 24.2783L23.7032 23.3354L23.4384 22.4994L22.7507 20.3219C22.5795 19.7806 22.4153 19.2372 22.2579 18.6917L22.1321 18.249L21.9851 17.7256L21.7607 16.9143L21.7186 16.7614H21.6844C21.5123 17.5872 21.3026 18.4047 21.0562 19.2114L20.5458 20.8532L20.2649 21.7602L19.9815 22.6785C19.9302 22.8444 19.8793 23.0084 19.8282 23.1705L19.676 23.6509L19.5245 24.12L19.3739 24.5775L19.2241 25.0237C19.1744 25.1705 19.1247 25.3153 19.0752 25.4583L19.0011 25.6715ZM37.1303 16.4517C36.7794 16.4658 36.4295 16.4057 36.1035 16.2753C35.7775 16.1449 35.4826 15.9471 35.2383 15.6949C34.9946 15.4318 34.8053 15.1231 34.6813 14.7866C34.5573 14.4501 34.501 14.0923 34.5157 13.734C34.5032 13.3792 34.5657 13.0259 34.6991 12.6969C34.8325 12.3679 35.0338 12.0708 35.2898 11.8249C35.7836 11.3509 36.4412 11.0856 37.1257 11.0844L37.199 11.0852C38.0247 11.0852 38.6728 11.3315 39.1429 11.8247C39.3802 12.081 39.5646 12.3815 39.6856 12.7091C39.8066 13.0368 39.8618 13.385 39.8481 13.734C39.8625 14.0938 39.8044 14.4528 39.6774 14.7897C39.5503 15.1266 39.3569 15.4345 39.1085 15.6951C38.8577 15.9423 38.56 16.1368 38.2329 16.2672C37.9058 16.3976 37.5559 16.4612 37.2038 16.4543L37.1303 16.4517ZM34.7565 34.9942V18.5503C34.7565 18.344 34.8479 18.2406 35.0317 18.2406H39.2633C39.4466 18.2406 39.5384 18.3438 39.5386 18.5503V34.9942C39.5386 35.2238 39.4468 35.3386 39.2633 35.3384H35.0662C34.8707 35.3384 34.7677 35.2354 34.7575 35.0295L34.7565 34.9942Z" fill="#FF9A00"/>
</svg>
