<svg width="31" height="30" viewBox="0 0 31 30" fill="none" xmlns="http://www.w3.org/2000/svg">
<path d="M12.2217 20.5H9.555V11.835H12.2217V20.5ZM10.8883 10.7233C9.92667 10.7233 9.445 10.2783 9.445 9.39C9.44202 9.21173 9.47772 9.03493 9.54965 8.87179C9.62159 8.70864 9.72804 8.56304 9.86167 8.445C10.1396 8.18571 10.5084 8.04621 10.8883 8.05667C11.85 8.05667 12.3317 8.50333 12.3317 9.39167C12.3317 10.28 11.8517 10.7233 10.8883 10.7233V10.7233ZM22.1117 20.5H19.39V15.6667C19.39 14.4083 18.9433 13.7783 18.055 13.7783C17.3517 13.7783 16.89 14.13 16.665 14.8333C16.5933 14.945 16.555 15.1683 16.555 15.5V20.5H13.8333V14.6117C13.8333 13.2783 13.8133 12.3533 13.7783 11.835H16.1117L16.2783 13C16.89 12.0733 17.7783 11.6117 19 11.6117C19.9283 11.6117 20.6767 11.935 21.25 12.5833C21.8267 13.2317 22.1133 14.1667 22.1133 15.39V20.5H22.1117ZM15.5 30C7.22833 30 0.5 23.2717 0.5 15C0.5 6.72833 7.22833 0 15.5 0C23.7717 0 30.5 6.72833 30.5 15C30.5 23.2717 23.7717 30 15.5 30ZM15.5 3.33333C9.06833 3.33333 3.83333 8.56833 3.83333 15C3.83333 21.4317 9.06833 26.6667 15.5 26.6667C21.9317 26.6667 27.1667 21.4317 27.1667 15C27.1667 8.56833 21.9317 3.33333 15.5 3.33333Z" fill="#883D13"/>
</svg>
