<svg width="45" height="45" viewBox="0 0 45 45" fill="none" xmlns="http://www.w3.org/2000/svg">
<circle cx="22.5" cy="22.5" r="22.5" fill="#2E2E2E"/>
<path d="M22.9951 10C24.4748 10 25.6699 10.2264 26.5805 10.6793C27.4911 11.1096 28.3447 11.6191 29.1415 12.2079C29.4374 12.4343 29.665 12.5476 29.8244 12.5476C30.2569 12.5476 30.5415 11.8569 30.678 10.4755H31.4634C31.4179 11.3134 31.3837 12.3324 31.361 13.5326C31.3382 14.7328 31.3268 16.3179 31.3268 18.288H30.5415C30.3821 17.337 30.1886 16.4198 29.961 15.5367C29.7333 14.6535 29.3577 13.8949 28.8341 13.2609C28.174 12.423 27.3089 11.7776 26.239 11.3247C25.1691 10.8492 24.065 10.6114 22.9268 10.6114C21.7886 10.6114 20.7528 10.8945 19.8195 11.4606C18.9089 12.0041 18.1236 12.7966 17.4634 13.8383C16.8033 14.88 16.2911 16.1368 15.9268 17.6087C15.5854 19.058 15.4146 20.6997 15.4146 22.534C15.4146 26.6101 16.0748 29.5992 17.3951 31.5014C18.7154 33.3809 20.7642 34.3207 23.5415 34.3207C24.361 34.3207 25.0667 34.2074 25.6585 33.981C26.2732 33.7319 26.7512 33.4941 27.0927 33.2677C27.5252 32.9733 27.7984 32.7015 27.9122 32.4524C28.026 32.1807 28.0829 31.8297 28.0829 31.3995V28.1386C28.0829 27.2101 27.9919 26.5195 27.8098 26.0666C27.6276 25.6137 27.2862 25.308 26.7854 25.1495C26.3073 24.9909 25.5902 24.9004 24.6341 24.8777V24.1984C25.0439 24.221 25.522 24.2437 26.0683 24.2663C26.6146 24.2663 27.1837 24.2776 27.7756 24.3003C28.3902 24.3003 28.948 24.3003 29.4488 24.3003C30.2 24.3003 30.8715 24.2889 31.4634 24.2663C32.078 24.2437 32.5902 24.221 33 24.1984V24.8777C32.4992 24.9004 32.1236 24.9796 31.8732 25.1155C31.6228 25.2514 31.452 25.5231 31.361 25.9307C31.2927 26.3383 31.2585 26.9611 31.2585 27.7989V34.5245H30.5756C30.5528 34.1395 30.4618 33.7206 30.3024 33.2677C30.1659 32.8148 29.9496 32.5883 29.6537 32.5883C29.5171 32.5883 29.3805 32.6223 29.2439 32.6902C29.1073 32.7582 28.8683 32.9167 28.5268 33.1658C27.7756 33.7319 26.9789 34.1848 26.1366 34.5245C25.2943 34.8415 24.3154 35 23.2 35C20.8553 35 18.8407 34.5245 17.1561 33.5734C15.4943 32.5996 14.2195 31.207 13.3317 29.3954C12.4439 27.5838 12 25.4212 12 22.9076C12 20.2582 12.478 17.971 13.4341 16.0462C14.3902 14.1214 15.6878 12.6381 17.3268 11.5965C18.9886 10.5322 20.878 10 22.9951 10Z" fill="#F3F3F3"/>
</svg>
