<svg width="400" height="400" viewBox="0 0 400 400" fill="none" xmlns="http://www.w3.org/2000/svg">
<rect width="400" height="400" rx="200" fill="#011826"/>
<path d="M204.137 94.9973C216.502 94.9973 226.488 96.8995 234.097 100.704C241.706 104.318 248.84 108.598 255.497 113.544C257.97 115.446 259.872 116.397 261.204 116.397C264.818 116.397 267.196 110.596 268.337 98.992H274.9C274.52 106.03 274.234 114.59 274.044 124.672C273.854 134.754 273.759 148.069 273.759 164.619H267.196C265.864 156.629 264.248 148.925 262.345 141.507C260.443 134.088 257.304 127.716 252.929 122.389C247.413 115.351 240.184 109.93 231.244 106.125C222.304 102.131 213.078 100.133 203.567 100.133C194.056 100.133 185.4 102.511 177.601 107.267C169.992 111.832 163.43 118.49 157.913 127.24C152.397 135.99 148.117 146.548 145.073 158.912C142.22 171.086 140.793 184.877 140.793 200.285C140.793 234.525 146.31 259.635 157.343 275.613C168.376 291.402 185.496 299.296 208.703 299.296C215.551 299.296 221.448 298.345 226.393 296.443C231.529 294.35 235.524 292.353 238.377 290.451C241.992 287.978 244.274 285.695 245.225 283.603C246.176 281.32 246.652 278.372 246.652 274.757V247.365C246.652 239.566 245.891 233.764 244.369 229.96C242.848 226.156 239.994 223.588 235.809 222.256C231.815 220.924 225.823 220.164 217.833 219.973V214.267C221.257 214.457 225.252 214.647 229.817 214.837C234.383 214.837 239.138 214.932 244.084 215.123C249.22 215.123 253.88 215.123 258.065 215.123C264.343 215.123 269.954 215.028 274.9 214.837C280.036 214.647 284.316 214.457 287.74 214.267V219.973C283.555 220.164 280.416 220.829 278.324 221.971C276.232 223.112 274.805 225.395 274.044 228.819C273.473 232.243 273.188 237.474 273.188 244.512V301.008H267.481C267.291 297.774 266.53 294.255 265.199 290.451C264.057 286.646 262.25 284.744 259.777 284.744C258.636 284.744 257.495 285.029 256.353 285.6C255.212 286.171 253.215 287.502 250.361 289.595C244.084 294.35 237.426 298.155 230.388 301.008C223.35 303.671 215.17 305.003 205.849 305.003C186.256 305.003 169.422 301.008 155.345 293.019C141.459 284.839 130.807 273.14 123.388 257.923C115.969 242.705 112.26 224.539 112.26 203.424C112.26 181.168 116.255 161.956 124.244 145.787C132.233 129.618 143.076 117.158 156.772 108.408C170.658 99.4675 186.447 94.9973 204.137 94.9973Z" fill="#F2F2F2"/>
</svg>
