<svg width="515" height="182" viewBox="0 0 515 182" fill="none" xmlns="http://www.w3.org/2000/svg">
<path d="M20.9088 26.1568V27.5648C19.3131 27.6117 18.0928 27.7995 17.248 28.128C16.4501 28.4096 15.9104 28.9728 15.6288 29.8176C15.3472 30.6155 15.2064 31.8827 15.2064 33.6192V68.5376C15.2064 70.2272 15.3472 71.4944 15.6288 72.3392C15.9104 73.184 16.4501 73.7472 17.248 74.0288C18.0928 74.3104 19.3131 74.4981 20.9088 74.592V76C19.8293 75.9061 18.4683 75.8592 16.8256 75.8592C15.2299 75.8123 13.6107 75.7888 11.968 75.7888C10.1376 75.7888 8.42453 75.8123 6.8288 75.8592C5.23307 75.8592 3.9424 75.9061 2.9568 76V74.592C4.55253 74.4981 5.74933 74.3104 6.5472 74.0288C7.392 73.7472 7.9552 73.184 8.2368 72.3392C8.5184 71.4944 8.6592 70.2272 8.6592 68.5376V33.6192C8.6592 31.8827 8.5184 30.6155 8.2368 29.8176C7.9552 28.9728 7.392 28.4096 6.5472 28.128C5.74933 27.7995 4.55253 27.6117 2.9568 27.5648V26.1568C3.9424 26.2037 5.23307 26.2507 6.8288 26.2976C8.42453 26.3445 10.1376 26.368 11.968 26.368C13.6107 26.368 15.2299 26.3445 16.8256 26.2976C18.4683 26.2507 19.8293 26.2037 20.9088 26.1568ZM49.5523 38.7584C51.3357 38.7584 52.8141 38.9931 53.9875 39.4624C55.2077 39.9317 56.2168 40.5888 57.0147 41.4336C57.9064 42.3723 58.54 43.5456 58.9155 44.9536C59.2909 46.3616 59.4787 48.2624 59.4787 50.656V69.4528C59.4787 71.424 59.8776 72.7616 60.6755 73.4656C61.5203 74.1696 62.9048 74.5216 64.8291 74.5216V76C64.0312 75.9531 62.8109 75.9061 61.1683 75.8592C59.5256 75.7653 57.9299 75.7184 56.3811 75.7184C54.8323 75.7184 53.3069 75.7653 51.8051 75.8592C50.3501 75.9061 49.2472 75.9531 48.4963 76V74.5216C50.1859 74.5216 51.3827 74.1696 52.0867 73.4656C52.7907 72.7616 53.1427 71.424 53.1427 69.4528V49.1072C53.1427 47.6523 53.0253 46.3147 52.7907 45.0944C52.556 43.8741 52.0163 42.8885 51.1715 42.1376C50.3736 41.3867 49.1299 41.0112 47.4403 41.0112C45.4691 41.0112 43.7325 41.5744 42.2307 42.7008C40.7757 43.8272 39.6259 45.376 38.7811 47.3472C37.9832 49.2715 37.5843 51.4304 37.5843 53.824V69.4528C37.5843 71.424 37.9363 72.7616 38.6403 73.4656C39.3443 74.1696 40.5411 74.5216 42.2307 74.5216V76C41.4797 75.9531 40.3533 75.9061 38.8515 75.8592C37.3965 75.7653 35.8947 75.7184 34.3459 75.7184C32.7971 75.7184 31.2013 75.7653 29.5587 75.8592C27.916 75.9061 26.6957 75.9531 25.8979 76V74.5216C27.8221 74.5216 29.1832 74.1696 29.9811 73.4656C30.8259 72.7616 31.2483 71.424 31.2483 69.4528V47.4176C31.2483 45.3056 30.8728 43.7568 30.1219 42.7712C29.3709 41.7387 27.9629 41.2224 25.8979 41.2224V39.744C27.3997 39.8848 28.8547 39.9552 30.2627 39.9552C31.6237 39.9552 32.9144 39.8848 34.1347 39.744C35.4019 39.5563 36.5517 39.2981 37.5843 38.9696V47.2768C38.8045 44.0853 40.4941 41.8795 42.6531 40.6592C44.8589 39.392 47.1587 38.7584 49.5523 38.7584ZM80.1702 89.2352C77.6827 89.2352 75.3361 88.9771 73.1302 88.4608C70.9243 87.9445 69.1409 87.1232 67.7798 85.9968C66.4657 84.9173 65.8086 83.5328 65.8086 81.8432C65.8086 80.2005 66.4657 78.7925 67.7798 77.6192C69.0939 76.4459 70.8774 75.5541 73.1302 74.944L73.5526 76.0704C72.5201 76.3989 71.6987 77.056 71.0886 78.0416C70.4785 79.0272 70.1734 80.1301 70.1734 81.3504C70.1734 83.5093 71.159 85.152 73.1302 86.2784C75.1483 87.4517 77.7531 88.0384 80.9446 88.0384C83.0566 88.0384 85.1217 87.7568 87.1398 87.1936C89.1579 86.6773 90.8241 85.7856 92.1382 84.5184C93.4523 83.2512 94.1094 81.5851 94.1094 79.52C94.1094 77.9712 93.5462 76.704 92.4198 75.7184C91.3403 74.6859 89.1814 74.1696 85.943 74.1696H80.7334C79.2315 74.1696 77.7766 74.0523 76.3686 73.8176C74.9606 73.5829 73.8107 73.0901 72.919 72.3392C72.0273 71.5883 71.5814 70.4384 71.5814 68.8896C71.5814 67.2939 72.2385 65.7685 73.5526 64.3136C74.8667 62.8117 77.2838 61.2864 80.8038 59.7376L81.6486 60.3712C80.0529 61.216 78.6683 62.0843 77.495 62.976C76.3217 63.8208 75.735 64.8299 75.735 66.0032C75.735 67.5051 76.8614 68.256 79.1142 68.256H87.9142C89.8854 68.256 91.6923 68.5376 93.335 69.1008C95.0246 69.664 96.3857 70.5557 97.4182 71.776C98.4507 72.9963 98.967 74.592 98.967 76.5632C98.967 78.7691 98.263 80.8341 96.855 82.7584C95.447 84.6827 93.335 86.2315 90.519 87.4048C87.7499 88.6251 84.3003 89.2352 80.1702 89.2352ZM80.5222 61.0048C78.2225 61.0048 76.1339 60.6293 74.2566 59.8784C72.3793 59.0805 70.9009 57.8603 69.8214 56.2176C68.7419 54.5749 68.2022 52.4629 68.2022 49.8816C68.2022 47.3003 68.7419 45.1883 69.8214 43.5456C70.9009 41.9029 72.3793 40.7061 74.2566 39.9552C76.1339 39.1573 78.2225 38.7584 80.5222 38.7584C82.8689 38.7584 84.9574 39.1573 86.7878 39.9552C88.6651 40.7061 90.1435 41.9029 91.223 43.5456C92.3025 45.1883 92.8422 47.3003 92.8422 49.8816C92.8422 52.4629 92.3025 54.5749 91.223 56.2176C90.1435 57.8603 88.6651 59.0805 86.7878 59.8784C84.9574 60.6293 82.8689 61.0048 80.5222 61.0048ZM80.5222 59.7376C82.3057 59.7376 83.6902 59.0336 84.6758 57.6256C85.7083 56.2176 86.2246 53.6363 86.2246 49.8816C86.2246 46.1269 85.7083 43.5456 84.6758 42.1376C83.6902 40.7296 82.3057 40.0256 80.5222 40.0256C78.7857 40.0256 77.4011 40.7296 76.3686 42.1376C75.3361 43.5456 74.8198 46.1269 74.8198 49.8816C74.8198 53.6363 75.3361 56.2176 76.3686 57.6256C77.4011 59.0336 78.7857 59.7376 80.5222 59.7376ZM90.6598 44.6016L89.3926 44.1088C90.0497 42.5131 91.1761 41.1051 92.7718 39.8848C94.3675 38.6645 96.0337 38.0544 97.7702 38.0544C98.9905 38.0544 99.9761 38.4064 100.727 39.1104C101.478 39.7675 101.853 40.7765 101.853 42.1376C101.853 43.5925 101.454 44.6251 100.657 45.2352C99.9057 45.7984 99.1313 46.08 98.3334 46.08C97.6294 46.08 96.9723 45.8453 96.3622 45.376C95.7521 44.8597 95.4001 44.0619 95.3062 42.9824C95.2123 41.9029 95.5409 40.5184 96.2918 38.8288L97.207 39.04C95.2358 39.7909 93.8278 40.5888 92.983 41.4336C92.1382 42.2315 91.3638 43.2875 90.6598 44.6016ZM120.83 38.7584C124.96 38.7584 128.175 40.0256 130.475 42.56C132.822 45.0475 133.995 48.9429 133.995 54.2464H109.144L109.073 52.9088H127.236C127.33 50.6091 127.143 48.4971 126.673 46.5728C126.204 44.6016 125.453 43.0293 124.42 41.856C123.435 40.6827 122.144 40.096 120.548 40.096C118.39 40.096 116.465 41.1755 114.776 43.3344C113.133 45.4933 112.147 48.9195 111.819 53.6128L112.03 53.8944C111.936 54.5984 111.866 55.3728 111.819 56.2176C111.772 57.0624 111.748 57.9072 111.748 58.752C111.748 61.9435 112.265 64.6891 113.297 66.9888C114.33 69.2885 115.667 71.0485 117.31 72.2688C119 73.4421 120.736 74.0288 122.52 74.0288C123.928 74.0288 125.265 73.8176 126.532 73.3952C127.8 72.9259 128.973 72.1749 130.052 71.1424C131.132 70.1099 132.071 68.7253 132.868 66.9888L134.276 67.552C133.76 69.1008 132.915 70.6027 131.742 72.0576C130.569 73.5125 129.09 74.7093 127.307 75.648C125.523 76.5397 123.458 76.9856 121.112 76.9856C117.732 76.9856 114.823 76.2112 112.382 74.6624C109.988 73.1136 108.135 70.9781 106.82 68.256C105.553 65.4869 104.92 62.3189 104.92 58.752C104.92 54.6219 105.577 51.0784 106.891 48.1216C108.205 45.1179 110.059 42.8181 112.452 41.2224C114.846 39.5797 117.639 38.7584 120.83 38.7584ZM161.23 38.7584C162.497 38.7584 163.6 39.0165 164.539 39.5328C165.524 40.0491 166.275 40.7296 166.791 41.5744C167.355 42.3723 167.636 43.2875 167.636 44.32C167.636 45.4933 167.261 46.5259 166.51 47.4176C165.806 48.3093 164.844 48.7552 163.623 48.7552C162.638 48.7552 161.769 48.4501 161.019 47.84C160.268 47.1829 159.892 46.2677 159.892 45.0944C159.892 44.2027 160.127 43.4517 160.596 42.8416C161.112 42.1845 161.676 41.6683 162.286 41.2928C161.957 40.8235 161.464 40.5888 160.807 40.5888C159.352 40.5888 158.015 41.0347 156.795 41.9264C155.574 42.7712 154.542 43.8741 153.697 45.2352C152.852 46.5963 152.195 48.0512 151.726 49.6C151.256 51.1019 151.022 52.5099 151.022 53.824V68.7488C151.022 71.0485 151.679 72.5973 152.993 73.3952C154.354 74.1461 156.184 74.5216 158.484 74.5216V76C157.405 75.9531 155.879 75.9061 153.908 75.8592C151.937 75.7653 149.848 75.7184 147.643 75.7184C146.047 75.7184 144.451 75.7653 142.855 75.8592C141.307 75.9061 140.133 75.9531 139.335 76V74.5216C141.26 74.5216 142.621 74.1696 143.419 73.4656C144.263 72.7616 144.686 71.424 144.686 69.4528V47.4176C144.686 45.3056 144.31 43.7568 143.559 42.7712C142.808 41.7387 141.4 41.2224 139.335 41.2224V39.744C140.837 39.8848 142.292 39.9552 143.7 39.9552C145.061 39.9552 146.352 39.8848 147.572 39.744C148.839 39.5563 149.989 39.2981 151.022 38.9696V47.7696C151.538 46.4085 152.265 45.0475 153.204 43.6864C154.19 42.2784 155.363 41.1051 156.724 40.1664C158.085 39.2277 159.587 38.7584 161.23 38.7584ZM243.024 26.1568V27.5648C241.428 27.6117 240.208 27.7995 239.363 28.128C238.565 28.4096 238.026 28.9728 237.744 29.8176C237.463 30.6155 237.322 31.8827 237.322 33.6192V68.5376C237.322 70.2272 237.463 71.4944 237.744 72.3392C238.026 73.184 238.565 73.7472 239.363 74.0288C240.208 74.3104 241.428 74.4981 243.024 74.592V76C241.945 75.9061 240.584 75.8592 238.941 75.8592C237.345 75.8123 235.726 75.7888 234.083 75.7888C232.253 75.7888 230.54 75.8123 228.944 75.8592C227.348 75.8592 226.058 75.9061 225.072 76V74.592C226.668 74.4981 227.865 74.3104 228.663 74.0288C229.507 73.7472 230.071 73.184 230.352 72.3392C230.634 71.4944 230.775 70.2272 230.775 68.5376V29.8176L231.056 30.0288L213.808 76.352H212.682L194.941 30.6624V67.8336C194.941 69.5232 195.082 70.8608 195.363 71.8464C195.692 72.7851 196.302 73.4656 197.194 73.888C198.132 74.2635 199.517 74.4981 201.347 74.592V76C200.503 75.9061 199.4 75.8592 198.039 75.8592C196.677 75.8123 195.387 75.7888 194.167 75.7888C192.993 75.7888 191.796 75.8123 190.576 75.8592C189.403 75.8592 188.417 75.9061 187.619 76V74.592C189.215 74.4981 190.412 74.2635 191.21 73.888C192.055 73.4656 192.618 72.7851 192.899 71.8464C193.181 70.8608 193.322 69.5232 193.322 67.8336V33.6192C193.322 31.8827 193.181 30.6155 192.899 29.8176C192.618 28.9728 192.055 28.4096 191.21 28.128C190.412 27.7995 189.215 27.6117 187.619 27.5648V26.1568C188.417 26.2037 189.403 26.2507 190.576 26.2976C191.796 26.3445 192.993 26.368 194.167 26.368C195.199 26.368 196.255 26.3445 197.335 26.2976C198.461 26.2507 199.4 26.2037 200.151 26.1568L216.131 68.256L214.935 68.8192L230.775 26.368C231.338 26.368 231.877 26.368 232.394 26.368C232.957 26.368 233.52 26.368 234.083 26.368C235.726 26.368 237.345 26.3445 238.941 26.2976C240.584 26.2507 241.945 26.2037 243.024 26.1568ZM257.682 76.4928C255.758 76.4928 254.092 76.1408 252.684 75.4368C251.276 74.6859 250.196 73.6533 249.445 72.3392C248.741 71.0251 248.389 69.4997 248.389 67.7632C248.389 65.6981 248.859 64.0085 249.797 62.6944C250.783 61.3803 252.027 60.3243 253.529 59.5264C255.03 58.7285 256.603 58.0715 258.245 57.5552C259.935 56.992 261.531 56.4757 263.033 56.0064C264.534 55.4901 265.755 54.9035 266.693 54.2464C267.679 53.5893 268.172 52.7211 268.172 51.6416V47.2768C268.172 45.3056 267.867 43.8037 267.257 42.7712C266.693 41.7387 265.919 41.0581 264.933 40.7296C263.948 40.3541 262.845 40.1664 261.625 40.1664C260.451 40.1664 259.184 40.3307 257.823 40.6592C256.509 40.9877 255.453 41.6683 254.655 42.7008C255.547 42.8885 256.321 43.3579 256.978 44.1088C257.635 44.8597 257.964 45.8219 257.964 46.9952C257.964 48.1685 257.588 49.1072 256.837 49.8112C256.086 50.4683 255.124 50.7968 253.951 50.7968C252.59 50.7968 251.581 50.3744 250.924 49.5296C250.314 48.6379 250.009 47.6523 250.009 46.5728C250.009 45.3525 250.314 44.3669 250.924 43.616C251.534 42.8651 252.308 42.1611 253.247 41.504C254.326 40.7531 255.711 40.1195 257.401 39.6032C259.137 39.04 261.085 38.7584 263.244 38.7584C265.168 38.7584 266.811 38.9931 268.172 39.4624C269.533 39.8848 270.659 40.5184 271.551 41.3632C272.771 42.4896 273.569 43.8741 273.945 45.5168C274.32 47.1125 274.508 49.0368 274.508 51.2896V70.8608C274.508 72.0341 274.672 72.8789 275.001 73.3952C275.376 73.9115 275.939 74.1696 276.69 74.1696C277.206 74.1696 277.699 74.0523 278.169 73.8176C278.638 73.5829 279.201 73.2075 279.858 72.6912L280.633 73.888C279.647 74.6389 278.708 75.2725 277.817 75.7888C276.925 76.2581 275.728 76.4928 274.226 76.4928C272.865 76.4928 271.739 76.2581 270.847 75.7888C269.955 75.3195 269.275 74.6389 268.805 73.7472C268.383 72.8085 268.172 71.6352 268.172 70.2272C266.905 72.3392 265.379 73.9115 263.596 74.944C261.859 75.9765 259.888 76.4928 257.682 76.4928ZM260.217 73.6768C261.765 73.6768 263.197 73.2309 264.511 72.3392C265.872 71.4475 267.092 70.1099 268.172 68.3264V54.528C267.609 55.3259 266.787 56.0064 265.708 56.5696C264.628 57.0859 263.455 57.6256 262.188 58.1888C260.921 58.7051 259.7 59.3387 258.527 60.0896C257.401 60.7936 256.462 61.7323 255.711 62.9056C254.96 64.0789 254.585 65.6043 254.585 67.4816C254.585 69.3589 255.077 70.8608 256.063 71.9872C257.095 73.1136 258.48 73.6768 260.217 73.6768ZM304.642 38.7584C305.909 38.7584 307.012 39.0165 307.951 39.5328C308.937 40.0491 309.688 40.7296 310.204 41.5744C310.767 42.3723 311.049 43.2875 311.049 44.32C311.049 45.4933 310.673 46.5259 309.922 47.4176C309.218 48.3093 308.256 48.7552 307.036 48.7552C306.05 48.7552 305.182 48.4501 304.431 47.84C303.68 47.1829 303.305 46.2677 303.305 45.0944C303.305 44.2027 303.539 43.4517 304.009 42.8416C304.525 42.1845 305.088 41.6683 305.698 41.2928C305.37 40.8235 304.877 40.5888 304.22 40.5888C302.765 40.5888 301.427 41.0347 300.207 41.9264C298.987 42.7712 297.954 43.8741 297.109 45.2352C296.265 46.5963 295.608 48.0512 295.138 49.6C294.669 51.1019 294.434 52.5099 294.434 53.824V68.7488C294.434 71.0485 295.091 72.5973 296.405 73.3952C297.767 74.1461 299.597 74.5216 301.897 74.5216V76C300.817 75.9531 299.292 75.9061 297.321 75.8592C295.349 75.7653 293.261 75.7184 291.055 75.7184C289.459 75.7184 287.864 75.7653 286.268 75.8592C284.719 75.9061 283.546 75.9531 282.748 76V74.5216C284.672 74.5216 286.033 74.1696 286.831 73.4656C287.676 72.7616 288.098 71.424 288.098 69.4528V47.4176C288.098 45.3056 287.723 43.7568 286.972 42.7712C286.221 41.7387 284.813 41.2224 282.748 41.2224V39.744C284.25 39.8848 285.705 39.9552 287.113 39.9552C288.474 39.9552 289.764 39.8848 290.985 39.744C292.252 39.5563 293.402 39.2981 294.434 38.9696V47.7696C294.951 46.4085 295.678 45.0475 296.617 43.6864C297.602 42.2784 298.776 41.1051 300.137 40.1664C301.498 39.2277 303 38.7584 304.642 38.7584ZM322.123 22.144C323.344 22.144 324.4 22.5899 325.291 23.4816C326.183 24.3733 326.629 25.4293 326.629 26.6496C326.629 27.8699 326.183 28.9259 325.291 29.8176C324.4 30.7093 323.344 31.1552 322.123 31.1552C320.903 31.1552 319.847 30.7093 318.955 29.8176C318.064 28.9259 317.618 27.8699 317.618 26.6496C317.618 25.4293 318.064 24.3733 318.955 23.4816C319.847 22.5899 320.903 22.144 322.123 22.144ZM325.784 38.9696V69.4528C325.784 71.424 326.183 72.7616 326.981 73.4656C327.826 74.1696 329.21 74.5216 331.135 74.5216V76C330.337 75.9531 329.117 75.9061 327.474 75.8592C325.878 75.7653 324.259 75.7184 322.616 75.7184C321.021 75.7184 319.401 75.7653 317.759 75.8592C316.116 75.9061 314.896 75.9531 314.098 76V74.5216C316.022 74.5216 317.383 74.1696 318.181 73.4656C319.026 72.7616 319.448 71.424 319.448 69.4528V47.4176C319.448 45.3056 319.073 43.7568 318.322 42.7712C317.571 41.7387 316.163 41.2224 314.098 41.2224V39.744C315.6 39.8848 317.055 39.9552 318.463 39.9552C319.824 39.9552 321.114 39.8848 322.335 39.744C323.602 39.5563 324.752 39.2981 325.784 38.9696ZM351.83 38.7584C355.96 38.7584 359.175 40.0256 361.475 42.56C363.822 45.0475 364.995 48.9429 364.995 54.2464H340.144L340.073 52.9088H358.236C358.33 50.6091 358.143 48.4971 357.673 46.5728C357.204 44.6016 356.453 43.0293 355.42 41.856C354.435 40.6827 353.144 40.096 351.548 40.096C349.39 40.096 347.465 41.1755 345.776 43.3344C344.133 45.4933 343.147 48.9195 342.819 53.6128L343.03 53.8944C342.936 54.5984 342.866 55.3728 342.819 56.2176C342.772 57.0624 342.748 57.9072 342.748 58.752C342.748 61.9435 343.265 64.6891 344.297 66.9888C345.33 69.2885 346.667 71.0485 348.31 72.2688C350 73.4421 351.736 74.0288 353.52 74.0288C354.928 74.0288 356.265 73.8176 357.532 73.3952C358.8 72.9259 359.973 72.1749 361.052 71.1424C362.132 70.1099 363.071 68.7253 363.868 66.9888L365.276 67.552C364.76 69.1008 363.915 70.6027 362.742 72.0576C361.569 73.5125 360.09 74.7093 358.307 75.648C356.523 76.5397 354.458 76.9856 352.112 76.9856C348.732 76.9856 345.823 76.2112 343.382 74.6624C340.988 73.1136 339.135 70.9781 337.82 68.256C336.553 65.4869 335.92 62.3189 335.92 58.752C335.92 54.6219 336.577 51.0784 337.891 48.1216C339.205 45.1179 341.059 42.8181 343.452 41.2224C345.846 39.5797 348.639 38.7584 351.83 38.7584Z" fill="#F3F3F3"/>
<path d="M127.47 113.171C130.521 113.171 132.985 113.641 134.862 114.579C136.74 115.471 138.5 116.527 140.142 117.747C140.753 118.217 141.222 118.451 141.55 118.451C142.442 118.451 143.029 117.02 143.31 114.157H144.93C144.836 115.893 144.765 118.005 144.718 120.493C144.671 122.98 144.648 126.266 144.648 130.349H143.029C142.7 128.378 142.301 126.477 141.832 124.646C141.363 122.816 140.588 121.244 139.509 119.93C138.148 118.193 136.364 116.855 134.158 115.917C131.953 114.931 129.676 114.438 127.33 114.438C124.983 114.438 122.847 115.025 120.923 116.198C119.046 117.325 117.427 118.967 116.066 121.126C114.705 123.285 113.649 125.89 112.898 128.941C112.194 131.945 111.842 135.347 111.842 139.149C111.842 147.597 113.203 153.792 115.925 157.734C118.647 161.63 122.871 163.578 128.597 163.578C130.286 163.578 131.741 163.343 132.962 162.874C134.229 162.357 135.214 161.865 135.918 161.395C136.81 160.785 137.373 160.222 137.608 159.706C137.843 159.142 137.96 158.415 137.96 157.523V150.765C137.96 148.841 137.772 147.409 137.397 146.47C137.021 145.532 136.317 144.898 135.285 144.57C134.299 144.241 132.821 144.053 130.85 144.006V142.598C131.694 142.645 132.68 142.692 133.806 142.739C134.933 142.739 136.106 142.763 137.326 142.81C138.594 142.81 139.743 142.81 140.776 142.81C142.325 142.81 143.709 142.786 144.93 142.739C146.197 142.692 147.253 142.645 148.098 142.598V144.006C147.065 144.053 146.291 144.218 145.774 144.499C145.258 144.781 144.906 145.344 144.718 146.189C144.578 147.034 144.507 148.324 144.507 150.061V164H143.099C143.052 163.202 142.865 162.334 142.536 161.395C142.254 160.457 141.809 159.987 141.198 159.987C140.917 159.987 140.635 160.058 140.354 160.198C140.072 160.339 139.579 160.668 138.875 161.184C137.326 162.357 135.684 163.296 133.947 164C132.211 164.657 130.193 164.986 127.893 164.986C123.059 164.986 118.905 164 115.432 162.029C112.006 160.011 109.378 157.124 107.547 153.37C105.717 149.615 104.802 145.133 104.802 139.923C104.802 134.432 105.787 129.692 107.758 125.702C109.73 121.713 112.405 118.639 115.784 116.48C119.21 114.274 123.106 113.171 127.47 113.171ZM184.503 126.97V156.397C184.503 158.509 184.879 160.081 185.63 161.114C186.427 162.099 187.835 162.592 189.854 162.592V164.07C188.399 163.93 186.944 163.859 185.489 163.859C184.128 163.859 182.814 163.93 181.546 164.07C180.326 164.211 179.2 164.469 178.167 164.845V156.538C176.994 159.588 175.328 161.771 173.169 163.085C171.057 164.352 168.874 164.986 166.622 164.986C164.979 164.986 163.547 164.751 162.327 164.282C161.107 163.812 160.098 163.155 159.3 162.31C158.408 161.372 157.798 160.151 157.47 158.65C157.141 157.148 156.977 155.294 156.977 153.088V135.418C156.977 133.306 156.601 131.757 155.85 130.771C155.099 129.739 153.691 129.222 151.626 129.222V127.744C153.128 127.885 154.583 127.955 155.991 127.955C157.352 127.955 158.643 127.885 159.863 127.744C161.13 127.556 162.28 127.298 163.313 126.97V154.637C163.313 156.092 163.407 157.429 163.594 158.65C163.782 159.87 164.251 160.855 165.002 161.606C165.753 162.357 166.974 162.733 168.663 162.733C170.494 162.733 172.113 162.17 173.521 161.043C174.976 159.917 176.102 158.391 176.9 156.467C177.745 154.543 178.167 152.384 178.167 149.99V135.418C178.167 133.306 177.792 131.757 177.041 130.771C176.29 129.739 174.882 129.222 172.817 129.222V127.744C174.319 127.885 175.774 127.955 177.182 127.955C178.543 127.955 179.833 127.885 181.054 127.744C182.321 127.556 183.471 127.298 184.503 126.97ZM217.102 126.758C218.886 126.758 220.364 126.993 221.537 127.462C222.758 127.932 223.767 128.589 224.565 129.434C225.456 130.372 226.09 131.546 226.465 132.954C226.841 134.362 227.029 136.262 227.029 138.656V157.453C227.029 159.424 227.428 160.762 228.225 161.466C229.07 162.17 230.455 162.522 232.379 162.522V164C231.581 163.953 230.361 163.906 228.718 163.859C227.076 163.765 225.48 163.718 223.931 163.718C222.382 163.718 220.857 163.765 219.355 163.859C217.9 163.906 216.797 163.953 216.046 164V162.522C217.736 162.522 218.933 162.17 219.637 161.466C220.341 160.762 220.693 159.424 220.693 157.453V137.107C220.693 135.652 220.575 134.315 220.341 133.094C220.106 131.874 219.566 130.889 218.721 130.138C217.924 129.387 216.68 129.011 214.99 129.011C213.019 129.011 211.283 129.574 209.781 130.701C208.326 131.827 207.176 133.376 206.331 135.347C205.533 137.271 205.134 139.43 205.134 141.824V157.453C205.134 159.424 205.486 160.762 206.19 161.466C206.894 162.17 208.091 162.522 209.781 162.522V164C209.03 163.953 207.903 163.906 206.401 163.859C204.947 163.765 203.445 163.718 201.896 163.718C200.347 163.718 198.751 163.765 197.109 163.859C195.466 163.906 194.246 163.953 193.448 164V162.522C195.372 162.522 196.733 162.17 197.531 161.466C198.376 160.762 198.798 159.424 198.798 157.453V135.418C198.798 133.306 198.423 131.757 197.672 130.771C196.921 129.739 195.513 129.222 193.448 129.222V127.744C194.95 127.885 196.405 127.955 197.813 127.955C199.174 127.955 200.464 127.885 201.685 127.744C202.952 127.556 204.102 127.298 205.134 126.97V135.277C206.355 132.085 208.044 129.879 210.203 128.659C212.409 127.392 214.709 126.758 217.102 126.758ZM267.486 108.806V156.326C267.486 158.438 267.862 160.011 268.613 161.043C269.41 162.029 270.818 162.522 272.837 162.522V164C271.382 163.859 269.927 163.789 268.472 163.789C267.111 163.789 265.797 163.859 264.529 164C263.309 164.141 262.183 164.399 261.15 164.774V117.254C261.15 115.142 260.775 113.594 260.024 112.608C259.273 111.575 257.865 111.059 255.8 111.059V109.581C257.302 109.722 258.757 109.792 260.165 109.792C261.526 109.792 262.816 109.722 264.037 109.581C265.304 109.393 266.454 109.135 267.486 108.806ZM252.702 126.758C254.767 126.758 256.691 127.251 258.475 128.237C260.305 129.222 261.526 130.912 262.136 133.306L261.221 134.01C260.563 132.038 259.531 130.607 258.123 129.715C256.762 128.823 255.143 128.378 253.265 128.378C250.496 128.378 248.173 129.809 246.296 132.672C244.465 135.535 243.574 139.947 243.621 145.907C243.621 149.709 243.973 152.877 244.677 155.411C245.427 157.899 246.507 159.776 247.915 161.043C249.37 162.263 251.13 162.874 253.195 162.874C255.166 162.874 256.95 162.029 258.545 160.339C260.141 158.65 261.103 156.162 261.432 152.877L262.277 153.862C261.901 157.429 260.751 160.175 258.827 162.099C256.95 164.023 254.392 164.986 251.153 164.986C248.243 164.986 245.686 164.282 243.48 162.874C241.321 161.466 239.655 159.354 238.481 156.538C237.355 153.722 236.792 150.178 236.792 145.907C236.792 141.636 237.519 138.093 238.974 135.277C240.476 132.414 242.424 130.278 244.817 128.87C247.258 127.462 249.886 126.758 252.702 126.758ZM293.468 126.758C297.598 126.758 300.813 128.026 303.112 130.56C305.459 133.047 306.632 136.943 306.632 142.246H281.781L281.711 140.909H299.874C299.968 138.609 299.78 136.497 299.311 134.573C298.841 132.602 298.09 131.029 297.058 129.856C296.072 128.683 294.782 128.096 293.186 128.096C291.027 128.096 289.103 129.175 287.413 131.334C285.77 133.493 284.785 136.919 284.456 141.613L284.668 141.894C284.574 142.598 284.503 143.373 284.456 144.218C284.409 145.062 284.386 145.907 284.386 146.752C284.386 149.943 284.902 152.689 285.935 154.989C286.967 157.289 288.305 159.049 289.948 160.269C291.637 161.442 293.374 162.029 295.157 162.029C296.565 162.029 297.903 161.818 299.17 161.395C300.437 160.926 301.61 160.175 302.69 159.142C303.769 158.11 304.708 156.725 305.506 154.989L306.914 155.552C306.398 157.101 305.553 158.603 304.38 160.058C303.206 161.513 301.728 162.709 299.944 163.648C298.161 164.54 296.096 164.986 293.749 164.986C290.37 164.986 287.46 164.211 285.02 162.662C282.626 161.114 280.772 158.978 279.458 156.256C278.191 153.487 277.557 150.319 277.557 146.752C277.557 142.622 278.214 139.078 279.528 136.122C280.842 133.118 282.696 130.818 285.09 129.222C287.484 127.58 290.276 126.758 293.468 126.758ZM333.867 126.758C335.134 126.758 336.237 127.017 337.176 127.533C338.162 128.049 338.913 128.73 339.429 129.574C339.992 130.372 340.274 131.287 340.274 132.32C340.274 133.493 339.898 134.526 339.147 135.418C338.443 136.309 337.481 136.755 336.261 136.755C335.275 136.755 334.407 136.45 333.656 135.84C332.905 135.183 332.53 134.268 332.53 133.094C332.53 132.203 332.764 131.452 333.234 130.842C333.75 130.185 334.313 129.668 334.923 129.293C334.595 128.823 334.102 128.589 333.445 128.589C331.99 128.589 330.652 129.035 329.432 129.926C328.212 130.771 327.179 131.874 326.334 133.235C325.49 134.596 324.833 136.051 324.363 137.6C323.894 139.102 323.659 140.51 323.659 141.824V156.749C323.659 159.049 324.316 160.597 325.63 161.395C326.992 162.146 328.822 162.522 331.122 162.522V164C330.042 163.953 328.517 163.906 326.546 163.859C324.574 163.765 322.486 163.718 320.28 163.718C318.684 163.718 317.089 163.765 315.493 163.859C313.944 163.906 312.771 163.953 311.973 164V162.522C313.897 162.522 315.258 162.17 316.056 161.466C316.901 160.762 317.323 159.424 317.323 157.453V135.418C317.323 133.306 316.948 131.757 316.197 130.771C315.446 129.739 314.038 129.222 311.973 129.222V127.744C313.475 127.885 314.93 127.955 316.338 127.955C317.699 127.955 318.989 127.885 320.21 127.744C321.477 127.556 322.627 127.298 323.659 126.97V135.77C324.176 134.409 324.903 133.047 325.842 131.686C326.827 130.278 328.001 129.105 329.362 128.166C330.723 127.228 332.225 126.758 333.867 126.758ZM353.001 108.877V135.206C354.221 132.015 355.911 129.809 358.069 128.589C360.275 127.369 362.575 126.758 364.969 126.758C366.752 126.758 368.231 126.993 369.404 127.462C370.624 127.932 371.633 128.589 372.431 129.434C373.323 130.372 373.956 131.546 374.332 132.954C374.707 134.362 374.895 136.262 374.895 138.656V157.453C374.895 159.424 375.294 160.762 376.092 161.466C376.937 162.17 378.321 162.522 380.245 162.522V164C379.448 163.953 378.227 163.906 376.585 163.859C374.942 163.765 373.346 163.718 371.797 163.718C370.249 163.718 368.723 163.765 367.221 163.859C365.767 163.906 364.664 163.953 363.913 164V162.522C365.602 162.522 366.799 162.17 367.503 161.466C368.207 160.762 368.559 159.424 368.559 157.453V137.107C368.559 135.652 368.442 134.315 368.207 133.094C367.972 131.874 367.433 130.889 366.588 130.138C365.79 129.387 364.546 129.011 362.857 129.011C360.932 129.011 359.219 129.551 357.717 130.63C356.263 131.71 355.113 133.212 354.268 135.136C353.423 137.06 353.001 139.266 353.001 141.754V157.453C353.001 159.424 353.353 160.762 354.057 161.466C354.761 162.17 355.957 162.522 357.647 162.522V164C356.896 163.953 355.77 163.906 354.268 163.859C352.813 163.765 351.311 163.718 349.762 163.718C348.213 163.718 346.618 163.765 344.975 163.859C343.332 163.906 342.112 163.953 341.314 164V162.522C343.239 162.522 344.6 162.17 345.397 161.466C346.242 160.762 346.665 159.424 346.665 157.453V117.325C346.665 115.213 346.289 113.664 345.538 112.678C344.787 111.646 343.379 111.13 341.314 111.13V109.651C342.816 109.792 344.271 109.862 345.679 109.862C347.04 109.862 348.331 109.792 349.551 109.651C350.818 109.463 351.968 109.205 353.001 108.877ZM415.297 126.97V156.397C415.297 158.509 415.672 160.081 416.423 161.114C417.221 162.099 418.629 162.592 420.647 162.592V164.07C419.192 163.93 417.737 163.859 416.283 163.859C414.921 163.859 413.607 163.93 412.34 164.07C411.12 164.211 409.993 164.469 408.961 164.845V156.538C407.788 159.588 406.121 161.771 403.963 163.085C401.851 164.352 399.668 164.986 397.415 164.986C395.773 164.986 394.341 164.751 393.121 164.282C391.901 163.812 390.892 163.155 390.094 162.31C389.202 161.372 388.592 160.151 388.263 158.65C387.935 157.148 387.771 155.294 387.771 153.088V135.418C387.771 133.306 387.395 131.757 386.644 130.771C385.893 129.739 384.485 129.222 382.42 129.222V127.744C383.922 127.885 385.377 127.955 386.785 127.955C388.146 127.955 389.437 127.885 390.657 127.744C391.924 127.556 393.074 127.298 394.107 126.97V154.637C394.107 156.092 394.2 157.429 394.388 158.65C394.576 159.87 395.045 160.855 395.796 161.606C396.547 162.357 397.767 162.733 399.457 162.733C401.287 162.733 402.907 162.17 404.315 161.043C405.769 159.917 406.896 158.391 407.694 156.467C408.539 154.543 408.961 152.384 408.961 149.99V135.418C408.961 133.306 408.585 131.757 407.835 130.771C407.084 129.739 405.676 129.222 403.611 129.222V127.744C405.112 127.885 406.567 127.955 407.975 127.955C409.336 127.955 410.627 127.885 411.847 127.744C413.115 127.556 414.264 127.298 415.297 126.97ZM436.843 126.758C438.721 126.758 440.316 127.063 441.63 127.674C442.945 128.284 443.907 128.847 444.517 129.363C446.066 130.63 447.004 129.786 447.333 126.829H448.952C448.858 128.143 448.788 129.715 448.741 131.546C448.694 133.329 448.67 135.746 448.67 138.797H447.051C446.77 137.06 446.277 135.371 445.573 133.728C444.916 132.085 443.93 130.748 442.616 129.715C441.302 128.636 439.589 128.096 437.477 128.096C435.834 128.096 434.45 128.565 433.323 129.504C432.244 130.396 431.704 131.733 431.704 133.517C431.704 134.925 432.126 136.145 432.971 137.178C433.816 138.163 434.919 139.102 436.28 139.994C437.641 140.838 439.119 141.777 440.715 142.81C442.499 143.936 444.118 145.086 445.573 146.259C447.028 147.433 448.178 148.723 449.022 150.131C449.914 151.539 450.36 153.205 450.36 155.13C450.36 157.289 449.797 159.095 448.67 160.55C447.544 162.005 446.066 163.108 444.235 163.859C442.452 164.61 440.481 164.986 438.322 164.986C437.289 164.986 436.303 164.892 435.365 164.704C434.473 164.563 433.605 164.329 432.76 164C432.291 163.765 431.798 163.484 431.282 163.155C430.812 162.827 430.343 162.475 429.874 162.099C429.404 161.724 428.982 161.747 428.606 162.17C428.231 162.545 427.949 163.319 427.762 164.493H426.142C426.236 162.991 426.307 161.161 426.354 159.002C426.401 156.843 426.424 153.98 426.424 150.413H428.043C428.372 153.041 428.841 155.341 429.451 157.312C430.061 159.283 431.023 160.832 432.338 161.958C433.652 163.038 435.482 163.578 437.829 163.578C438.767 163.578 439.706 163.366 440.645 162.944C441.63 162.522 442.452 161.818 443.109 160.832C443.766 159.846 444.094 158.532 444.094 156.89C444.094 154.825 443.343 153.135 441.842 151.821C440.34 150.507 438.439 149.122 436.139 147.667C434.45 146.588 432.854 145.508 431.352 144.429C429.897 143.349 428.7 142.129 427.762 140.768C426.87 139.407 426.424 137.764 426.424 135.84C426.424 133.728 426.893 132.015 427.832 130.701C428.818 129.34 430.108 128.354 431.704 127.744C433.3 127.087 435.013 126.758 436.843 126.758ZM472.836 126.758C476.966 126.758 480.181 128.026 482.481 130.56C484.828 133.047 486.001 136.943 486.001 142.246H461.15L461.08 140.909H479.243C479.337 138.609 479.149 136.497 478.68 134.573C478.21 132.602 477.459 131.029 476.427 129.856C475.441 128.683 474.15 128.096 472.555 128.096C470.396 128.096 468.472 129.175 466.782 131.334C465.139 133.493 464.154 136.919 463.825 141.613L464.036 141.894C463.942 142.598 463.872 143.373 463.825 144.218C463.778 145.062 463.755 145.907 463.755 146.752C463.755 149.943 464.271 152.689 465.304 154.989C466.336 157.289 467.674 159.049 469.316 160.269C471.006 161.442 472.742 162.029 474.526 162.029C475.934 162.029 477.272 161.818 478.539 161.395C479.806 160.926 480.979 160.175 482.059 159.142C483.138 158.11 484.077 156.725 484.875 154.989L486.283 155.552C485.766 157.101 484.922 158.603 483.748 160.058C482.575 161.513 481.097 162.709 479.313 163.648C477.53 164.54 475.465 164.986 473.118 164.986C469.739 164.986 466.829 164.211 464.388 162.662C461.995 161.114 460.141 158.978 458.827 156.256C457.56 153.487 456.926 150.319 456.926 146.752C456.926 142.622 457.583 139.078 458.897 136.122C460.211 133.118 462.065 130.818 464.459 129.222C466.852 127.58 469.645 126.758 472.836 126.758ZM502.676 116.058V127.814H513.095V129.222H502.676V156.467C502.676 158.673 503.075 160.222 503.873 161.114C504.671 162.005 505.774 162.451 507.182 162.451C508.59 162.451 509.81 161.888 510.842 160.762C511.875 159.588 512.767 157.641 513.518 154.918L514.926 155.27C514.456 157.993 513.518 160.292 512.11 162.17C510.749 164.047 508.637 164.986 505.774 164.986C504.178 164.986 502.864 164.774 501.831 164.352C500.799 163.977 499.883 163.413 499.086 162.662C498.053 161.583 497.326 160.292 496.903 158.79C496.528 157.289 496.34 155.294 496.34 152.806V129.222H489.582V127.814H496.34V117.043C497.513 116.996 498.64 116.902 499.719 116.762C500.799 116.621 501.784 116.386 502.676 116.058Z" fill="#F3F3F3"/>
</svg>
