<svg width="189" height="70" viewBox="0 0 189 70" fill="none" xmlns="http://www.w3.org/2000/svg">
<path d="M7.722 9.592V10.112C7.13267 10.1293 6.682 10.1987 6.37 10.32C6.07533 10.424 5.876 10.632 5.772 10.944C5.668 11.2387 5.616 11.7067 5.616 12.348V25.244C5.616 25.868 5.668 26.336 5.772 26.648C5.876 26.96 6.07533 27.168 6.37 27.272C6.682 27.376 7.13267 27.4453 7.722 27.48V28C7.32333 27.9653 6.82067 27.948 6.214 27.948C5.62467 27.9307 5.02667 27.922 4.42 27.922C3.744 27.922 3.11133 27.9307 2.522 27.948C1.93267 27.948 1.456 27.9653 1.092 28V27.48C1.68133 27.4453 2.12333 27.376 2.418 27.272C2.73 27.168 2.938 26.96 3.042 26.648C3.146 26.336 3.198 25.868 3.198 25.244V12.348C3.198 11.7067 3.146 11.2387 3.042 10.944C2.938 10.632 2.73 10.424 2.418 10.32C2.12333 10.1987 1.68133 10.1293 1.092 10.112V9.592C1.456 9.60933 1.93267 9.62667 2.522 9.644C3.11133 9.66133 3.744 9.67 4.42 9.67C5.02667 9.67 5.62467 9.66133 6.214 9.644C6.82067 9.62667 7.32333 9.60933 7.722 9.592ZM18.3005 14.246C18.9592 14.246 19.5052 14.3327 19.9385 14.506C20.3892 14.6793 20.7619 14.922 21.0565 15.234C21.3859 15.5807 21.6199 16.014 21.7585 16.534C21.8972 17.054 21.9665 17.756 21.9665 18.64V25.582C21.9665 26.31 22.1139 26.804 22.4085 27.064C22.7205 27.324 23.2319 27.454 23.9425 27.454V28C23.6479 27.9827 23.1972 27.9653 22.5905 27.948C21.9839 27.9133 21.3945 27.896 20.8225 27.896C20.2505 27.896 19.6872 27.9133 19.1325 27.948C18.5952 27.9653 18.1879 27.9827 17.9105 28V27.454C18.5345 27.454 18.9765 27.324 19.2365 27.064C19.4965 26.804 19.6265 26.31 19.6265 25.582V18.068C19.6265 17.5307 19.5832 17.0367 19.4965 16.586C19.4099 16.1353 19.2105 15.7713 18.8985 15.494C18.6039 15.2167 18.1445 15.078 17.5205 15.078C16.7925 15.078 16.1512 15.286 15.5965 15.702C15.0592 16.118 14.6345 16.69 14.3225 17.418C14.0279 18.1287 13.8805 18.926 13.8805 19.81V25.582C13.8805 26.31 14.0105 26.804 14.2705 27.064C14.5305 27.324 14.9725 27.454 15.5965 27.454V28C15.3192 27.9827 14.9032 27.9653 14.3485 27.948C13.8112 27.9133 13.2565 27.896 12.6845 27.896C12.1125 27.896 11.5232 27.9133 10.9165 27.948C10.3099 27.9653 9.85921 27.9827 9.56455 28V27.454C10.2752 27.454 10.7779 27.324 11.0725 27.064C11.3845 26.804 11.5405 26.31 11.5405 25.582V17.444C11.5405 16.664 11.4019 16.092 11.1245 15.728C10.8472 15.3467 10.3272 15.156 9.56455 15.156V14.61C10.1192 14.662 10.6565 14.688 11.1765 14.688C11.6792 14.688 12.1559 14.662 12.6065 14.61C13.0745 14.5407 13.4992 14.4453 13.8805 14.324V17.392C14.3312 16.2133 14.9552 15.3987 15.7525 14.948C16.5672 14.48 17.4165 14.246 18.3005 14.246ZM29.6083 32.888C28.6896 32.888 27.823 32.7927 27.0083 32.602C26.1936 32.4113 25.535 32.108 25.0323 31.692C24.547 31.2933 24.3043 30.782 24.3043 30.158C24.3043 29.5513 24.547 29.0313 25.0323 28.598C25.5176 28.1647 26.1763 27.8353 27.0083 27.61L27.1643 28.026C26.783 28.1473 26.4796 28.39 26.2543 28.754C26.029 29.118 25.9163 29.5253 25.9163 29.976C25.9163 30.7733 26.2803 31.38 27.0083 31.796C27.7536 32.2293 28.7156 32.446 29.8943 32.446C30.6743 32.446 31.437 32.342 32.1823 32.134C32.9276 31.9433 33.543 31.614 34.0283 31.146C34.5136 30.678 34.7563 30.0627 34.7563 29.3C34.7563 28.728 34.5483 28.26 34.1323 27.896C33.7336 27.5147 32.9363 27.324 31.7403 27.324H29.8163C29.2616 27.324 28.7243 27.2807 28.2043 27.194C27.6843 27.1073 27.2596 26.9253 26.9303 26.648C26.601 26.3707 26.4363 25.946 26.4363 25.374C26.4363 24.7847 26.679 24.2213 27.1643 23.684C27.6496 23.1293 28.5423 22.566 29.8423 21.994L30.1543 22.228C29.565 22.54 29.0536 22.8607 28.6203 23.19C28.187 23.502 27.9703 23.8747 27.9703 24.308C27.9703 24.8627 28.3863 25.14 29.2183 25.14H32.4683C33.1963 25.14 33.8636 25.244 34.4703 25.452C35.0943 25.66 35.597 25.9893 35.9783 26.44C36.3596 26.8907 36.5503 27.48 36.5503 28.208C36.5503 29.0227 36.2903 29.7853 35.7703 30.496C35.2503 31.2067 34.4703 31.7787 33.4303 32.212C32.4076 32.6627 31.1336 32.888 29.6083 32.888ZM29.7383 22.462C28.889 22.462 28.1176 22.3233 27.4243 22.046C26.731 21.7513 26.185 21.3007 25.7863 20.694C25.3876 20.0873 25.1883 19.3073 25.1883 18.354C25.1883 17.4007 25.3876 16.6207 25.7863 16.014C26.185 15.4073 26.731 14.9653 27.4243 14.688C28.1176 14.3933 28.889 14.246 29.7383 14.246C30.605 14.246 31.3763 14.3933 32.0523 14.688C32.7456 14.9653 33.2916 15.4073 33.6903 16.014C34.089 16.6207 34.2883 17.4007 34.2883 18.354C34.2883 19.3073 34.089 20.0873 33.6903 20.694C33.2916 21.3007 32.7456 21.7513 32.0523 22.046C31.3763 22.3233 30.605 22.462 29.7383 22.462ZM29.7383 21.994C30.397 21.994 30.9083 21.734 31.2723 21.214C31.6536 20.694 31.8443 19.7407 31.8443 18.354C31.8443 16.9673 31.6536 16.014 31.2723 15.494C30.9083 14.974 30.397 14.714 29.7383 14.714C29.097 14.714 28.5856 14.974 28.2043 15.494C27.823 16.014 27.6323 16.9673 27.6323 18.354C27.6323 19.7407 27.823 20.694 28.2043 21.214C28.5856 21.734 29.097 21.994 29.7383 21.994ZM33.4823 16.404L33.0143 16.222C33.257 15.6327 33.673 15.1127 34.2623 14.662C34.8516 14.2113 35.467 13.986 36.1083 13.986C36.559 13.986 36.923 14.116 37.2003 14.376C37.4776 14.6187 37.6163 14.9913 37.6163 15.494C37.6163 16.0313 37.469 16.4127 37.1743 16.638C36.897 16.846 36.611 16.95 36.3163 16.95C36.0563 16.95 35.8136 16.8633 35.5883 16.69C35.363 16.4993 35.233 16.2047 35.1983 15.806C35.1636 15.4073 35.285 14.896 35.5623 14.272L35.9003 14.35C35.1723 14.6273 34.6523 14.922 34.3403 15.234C34.0283 15.5287 33.7423 15.9187 33.4823 16.404ZM44.6247 14.246C46.1501 14.246 47.3374 14.714 48.1867 15.65C49.0534 16.5687 49.4867 18.0073 49.4867 19.966H40.3087L40.2827 19.472H46.9907C47.0254 18.6227 46.9561 17.8427 46.7827 17.132C46.6094 16.404 46.3321 15.8233 45.9507 15.39C45.5867 14.9567 45.1101 14.74 44.5207 14.74C43.7234 14.74 43.0127 15.1387 42.3887 15.936C41.7821 16.7333 41.4181 17.9987 41.2967 19.732L41.3747 19.836C41.3401 20.096 41.3141 20.382 41.2967 20.694C41.2794 21.006 41.2707 21.318 41.2707 21.63C41.2707 22.8087 41.4614 23.8227 41.8427 24.672C42.2241 25.5213 42.7181 26.1713 43.3247 26.622C43.9487 27.0553 44.5901 27.272 45.2487 27.272C45.7687 27.272 46.2627 27.194 46.7307 27.038C47.1987 26.8647 47.6321 26.5873 48.0307 26.206C48.4294 25.8247 48.7761 25.3133 49.0707 24.672L49.5907 24.88C49.4001 25.452 49.0881 26.0067 48.6547 26.544C48.2214 27.0813 47.6754 27.5233 47.0167 27.87C46.3581 28.1993 45.5954 28.364 44.7287 28.364C43.4807 28.364 42.4061 28.078 41.5047 27.506C40.6207 26.934 39.9361 26.1453 39.4507 25.14C38.9827 24.1173 38.7487 22.9473 38.7487 21.63C38.7487 20.1047 38.9914 18.796 39.4767 17.704C39.9621 16.5947 40.6467 15.7453 41.5307 15.156C42.4147 14.5493 43.4461 14.246 44.6247 14.246ZM59.5451 14.246C60.0131 14.246 60.4204 14.3413 60.7671 14.532C61.1311 14.7227 61.4084 14.974 61.5991 15.286C61.8071 15.5807 61.9111 15.9187 61.9111 16.3C61.9111 16.7333 61.7724 17.1147 61.4951 17.444C61.2351 17.7733 60.8797 17.938 60.4291 17.938C60.0651 17.938 59.7444 17.8253 59.4671 17.6C59.1897 17.3573 59.0511 17.0193 59.0511 16.586C59.0511 16.2567 59.1377 15.9793 59.3111 15.754C59.5017 15.5113 59.7097 15.3207 59.9351 15.182C59.8137 15.0087 59.6317 14.922 59.3891 14.922C58.8517 14.922 58.3577 15.0867 57.9071 15.416C57.4564 15.728 57.0751 16.1353 56.7631 16.638C56.4511 17.1407 56.2084 17.678 56.0351 18.25C55.8617 18.8047 55.7751 19.3247 55.7751 19.81V25.322C55.7751 26.1713 56.0177 26.7433 56.5031 27.038C57.0057 27.3153 57.6817 27.454 58.5311 27.454V28C58.1324 27.9827 57.5691 27.9653 56.8411 27.948C56.1131 27.9133 55.3417 27.896 54.5271 27.896C53.9377 27.896 53.3484 27.9133 52.7591 27.948C52.1871 27.9653 51.7537 27.9827 51.4591 28V27.454C52.1697 27.454 52.6724 27.324 52.9671 27.064C53.2791 26.804 53.4351 26.31 53.4351 25.582V17.444C53.4351 16.664 53.2964 16.092 53.0191 15.728C52.7417 15.3467 52.2217 15.156 51.4591 15.156V14.61C52.0137 14.662 52.5511 14.688 53.0711 14.688C53.5737 14.688 54.0504 14.662 54.5011 14.61C54.9691 14.5407 55.3937 14.4453 55.7751 14.324V17.574C55.9657 17.0713 56.2344 16.5687 56.5811 16.066C56.9451 15.546 57.3784 15.1127 57.8811 14.766C58.3837 14.4193 58.9384 14.246 59.5451 14.246ZM89.7532 9.592V10.112C89.1639 10.1293 88.7132 10.1987 88.4012 10.32C88.1066 10.424 87.9072 10.632 87.8032 10.944C87.6992 11.2387 87.6472 11.7067 87.6472 12.348V25.244C87.6472 25.868 87.6992 26.336 87.8032 26.648C87.9072 26.96 88.1066 27.168 88.4012 27.272C88.7132 27.376 89.1639 27.4453 89.7532 27.48V28C89.3546 27.9653 88.8519 27.948 88.2452 27.948C87.6559 27.9307 87.0579 27.922 86.4512 27.922C85.7752 27.922 85.1426 27.9307 84.5532 27.948C83.9639 27.948 83.4872 27.9653 83.1232 28V27.48C83.7126 27.4453 84.1546 27.376 84.4492 27.272C84.7612 27.168 84.9692 26.96 85.0732 26.648C85.1772 26.336 85.2292 25.868 85.2292 25.244V10.944L85.3332 11.022L78.9632 28.13H78.5472L71.9952 11.256V24.984C71.9952 25.608 72.0472 26.102 72.1512 26.466C72.2726 26.8127 72.4979 27.064 72.8272 27.22C73.1739 27.3587 73.6852 27.4453 74.3612 27.48V28C74.0492 27.9653 73.6419 27.948 73.1392 27.948C72.6366 27.9307 72.1599 27.922 71.7092 27.922C71.2759 27.922 70.8339 27.9307 70.3832 27.948C69.9499 27.948 69.5859 27.9653 69.2912 28V27.48C69.8806 27.4453 70.3226 27.3587 70.6172 27.22C70.9292 27.064 71.1372 26.8127 71.2412 26.466C71.3452 26.102 71.3972 25.608 71.3972 24.984V12.348C71.3972 11.7067 71.3452 11.2387 71.2412 10.944C71.1372 10.632 70.9292 10.424 70.6172 10.32C70.3226 10.1987 69.8806 10.1293 69.2912 10.112V9.592C69.5859 9.60933 69.9499 9.62667 70.3832 9.644C70.8339 9.66133 71.2759 9.67 71.7092 9.67C72.0906 9.67 72.4806 9.66133 72.8792 9.644C73.2952 9.62667 73.6419 9.60933 73.9192 9.592L79.8212 25.14L79.3792 25.348L85.2292 9.67C85.4372 9.67 85.6366 9.67 85.8272 9.67C86.0352 9.67 86.2432 9.67 86.4512 9.67C87.0579 9.67 87.6559 9.66133 88.2452 9.644C88.8519 9.62667 89.3546 9.60933 89.7532 9.592ZM95.1667 28.182C94.456 28.182 93.8407 28.052 93.3207 27.792C92.8007 27.5147 92.402 27.1333 92.1247 26.648C91.8647 26.1627 91.7347 25.5993 91.7347 24.958C91.7347 24.1953 91.908 23.5713 92.2547 23.086C92.6187 22.6007 93.078 22.2107 93.6327 21.916C94.1874 21.6213 94.768 21.3787 95.3747 21.188C95.9987 20.98 96.588 20.7893 97.1427 20.616C97.6974 20.4253 98.148 20.2087 98.4947 19.966C98.8587 19.7233 99.0407 19.4027 99.0407 19.004V17.392C99.0407 16.664 98.928 16.1093 98.7027 15.728C98.4947 15.3467 98.2087 15.0953 97.8447 14.974C97.4807 14.8353 97.0734 14.766 96.6227 14.766C96.1894 14.766 95.7214 14.8267 95.2187 14.948C94.7334 15.0693 94.3434 15.3207 94.0487 15.702C94.378 15.7713 94.664 15.9447 94.9067 16.222C95.1494 16.4993 95.2707 16.8547 95.2707 17.288C95.2707 17.7213 95.132 18.068 94.8547 18.328C94.5774 18.5707 94.222 18.692 93.7887 18.692C93.286 18.692 92.9134 18.536 92.6707 18.224C92.4454 17.8947 92.3327 17.5307 92.3327 17.132C92.3327 16.6813 92.4454 16.3173 92.6707 16.04C92.896 15.7627 93.182 15.5027 93.5287 15.26C93.9274 14.9827 94.4387 14.7487 95.0627 14.558C95.704 14.35 96.4234 14.246 97.2207 14.246C97.9314 14.246 98.538 14.3327 99.0407 14.506C99.5434 14.662 99.9594 14.896 100.289 15.208C100.739 15.624 101.034 16.1353 101.173 16.742C101.311 17.3313 101.381 18.042 101.381 18.874V26.102C101.381 26.5353 101.441 26.8473 101.563 27.038C101.701 27.2287 101.909 27.324 102.187 27.324C102.377 27.324 102.559 27.2807 102.733 27.194C102.906 27.1073 103.114 26.9687 103.357 26.778L103.643 27.22C103.279 27.4973 102.932 27.7313 102.603 27.922C102.273 28.0953 101.831 28.182 101.277 28.182C100.774 28.182 100.358 28.0953 100.029 27.922C99.6994 27.7487 99.448 27.4973 99.2747 27.168C99.1187 26.8213 99.0407 26.388 99.0407 25.868C98.5727 26.648 98.0094 27.2287 97.3507 27.61C96.7094 27.9913 95.9814 28.182 95.1667 28.182ZM96.1027 27.142C96.6747 27.142 97.2034 26.9773 97.6887 26.648C98.1914 26.3187 98.642 25.8247 99.0407 25.166V20.07C98.8327 20.3647 98.5294 20.616 98.1307 20.824C97.732 21.0147 97.2987 21.214 96.8307 21.422C96.3627 21.6127 95.912 21.8467 95.4787 22.124C95.0627 22.384 94.716 22.7307 94.4387 23.164C94.1614 23.5973 94.0227 24.1607 94.0227 24.854C94.0227 25.5473 94.2047 26.102 94.5687 26.518C94.95 26.934 95.4614 27.142 96.1027 27.142ZM112.51 14.246C112.978 14.246 113.385 14.3413 113.732 14.532C114.096 14.7227 114.373 14.974 114.564 15.286C114.772 15.5807 114.876 15.9187 114.876 16.3C114.876 16.7333 114.737 17.1147 114.46 17.444C114.2 17.7733 113.845 17.938 113.394 17.938C113.03 17.938 112.709 17.8253 112.432 17.6C112.155 17.3573 112.016 17.0193 112.016 16.586C112.016 16.2567 112.103 15.9793 112.276 15.754C112.467 15.5113 112.675 15.3207 112.9 15.182C112.779 15.0087 112.597 14.922 112.354 14.922C111.817 14.922 111.323 15.0867 110.872 15.416C110.421 15.728 110.04 16.1353 109.728 16.638C109.416 17.1407 109.173 17.678 109 18.25C108.827 18.8047 108.74 19.3247 108.74 19.81V25.322C108.74 26.1713 108.983 26.7433 109.468 27.038C109.971 27.3153 110.647 27.454 111.496 27.454V28C111.097 27.9827 110.534 27.9653 109.806 27.948C109.078 27.9133 108.307 27.896 107.492 27.896C106.903 27.896 106.313 27.9133 105.724 27.948C105.152 27.9653 104.719 27.9827 104.424 28V27.454C105.135 27.454 105.637 27.324 105.932 27.064C106.244 26.804 106.4 26.31 106.4 25.582V17.444C106.4 16.664 106.261 16.092 105.984 15.728C105.707 15.3467 105.187 15.156 104.424 15.156V14.61C104.979 14.662 105.516 14.688 106.036 14.688C106.539 14.688 107.015 14.662 107.466 14.61C107.934 14.5407 108.359 14.4453 108.74 14.324V17.574C108.931 17.0713 109.199 16.5687 109.546 16.066C109.91 15.546 110.343 15.1127 110.846 14.766C111.349 14.4193 111.903 14.246 112.51 14.246ZM118.966 8.11C119.417 8.11 119.807 8.27467 120.136 8.604C120.465 8.93333 120.63 9.32333 120.63 9.774C120.63 10.2247 120.465 10.6147 120.136 10.944C119.807 11.2733 119.417 11.438 118.966 11.438C118.515 11.438 118.125 11.2733 117.796 10.944C117.467 10.6147 117.302 10.2247 117.302 9.774C117.302 9.32333 117.467 8.93333 117.796 8.604C118.125 8.27467 118.515 8.11 118.966 8.11ZM120.318 14.324V25.582C120.318 26.31 120.465 26.804 120.76 27.064C121.072 27.324 121.583 27.454 122.294 27.454V28C121.999 27.9827 121.549 27.9653 120.942 27.948C120.353 27.9133 119.755 27.896 119.148 27.896C118.559 27.896 117.961 27.9133 117.354 27.948C116.747 27.9653 116.297 27.9827 116.002 28V27.454C116.713 27.454 117.215 27.324 117.51 27.064C117.822 26.804 117.978 26.31 117.978 25.582V17.444C117.978 16.664 117.839 16.092 117.562 15.728C117.285 15.3467 116.765 15.156 116.002 15.156V14.61C116.557 14.662 117.094 14.688 117.614 14.688C118.117 14.688 118.593 14.662 119.044 14.61C119.512 14.5407 119.937 14.4453 120.318 14.324ZM129.937 14.246C131.463 14.246 132.65 14.714 133.499 15.65C134.366 16.5687 134.799 18.0073 134.799 19.966H125.621L125.595 19.472H132.303C132.338 18.6227 132.269 17.8427 132.095 17.132C131.922 16.404 131.645 15.8233 131.263 15.39C130.899 14.9567 130.423 14.74 129.833 14.74C129.036 14.74 128.325 15.1387 127.701 15.936C127.095 16.7333 126.731 17.9987 126.609 19.732L126.687 19.836C126.653 20.096 126.627 20.382 126.609 20.694C126.592 21.006 126.583 21.318 126.583 21.63C126.583 22.8087 126.774 23.8227 127.155 24.672C127.537 25.5213 128.031 26.1713 128.637 26.622C129.261 27.0553 129.903 27.272 130.561 27.272C131.081 27.272 131.575 27.194 132.043 27.038C132.511 26.8647 132.945 26.5873 133.343 26.206C133.742 25.8247 134.089 25.3133 134.383 24.672L134.903 24.88C134.713 25.452 134.401 26.0067 133.967 26.544C133.534 27.0813 132.988 27.5233 132.329 27.87C131.671 28.1993 130.908 28.364 130.041 28.364C128.793 28.364 127.719 28.078 126.817 27.506C125.933 26.934 125.249 26.1453 124.763 25.14C124.295 24.1173 124.061 22.9473 124.061 21.63C124.061 20.1047 124.304 18.796 124.789 17.704C125.275 16.5947 125.959 15.7453 126.843 15.156C127.727 14.5493 128.759 14.246 129.937 14.246Z" fill="#2E2E2E"/>
<path d="M45.6498 44.228C46.7764 44.228 47.6864 44.4014 48.3798 44.748C49.0731 45.0774 49.7231 45.4674 50.3298 45.918C50.5551 46.0914 50.7284 46.178 50.8498 46.178C51.1791 46.178 51.3958 45.6494 51.4998 44.592H52.0978C52.0631 45.2334 52.0371 46.0134 52.0198 46.932C52.0024 47.8507 51.9938 49.064 51.9938 50.572H51.3958C51.2744 49.844 51.1271 49.142 50.9538 48.466C50.7804 47.79 50.4944 47.2094 50.0958 46.724C49.5931 46.0827 48.9344 45.5887 48.1198 45.242C47.3051 44.878 46.4644 44.696 45.5978 44.696C44.7311 44.696 43.9424 44.9127 43.2318 45.346C42.5384 45.762 41.9404 46.3687 41.4378 47.166C40.9351 47.9634 40.5451 48.9254 40.2678 50.052C40.0078 51.1614 39.8778 52.418 39.8778 53.822C39.8778 56.942 40.3804 59.23 41.3858 60.686C42.3911 62.1247 43.9511 62.844 46.0658 62.844C46.6898 62.844 47.2271 62.7574 47.6778 62.584C48.1458 62.3934 48.5098 62.2114 48.7698 62.038C49.0991 61.8127 49.3071 61.6047 49.3938 61.414C49.4804 61.206 49.5238 60.9374 49.5238 60.608V58.112C49.5238 57.4014 49.4544 56.8727 49.3158 56.526C49.1771 56.1794 48.9171 55.9454 48.5358 55.824C48.1718 55.7027 47.6258 55.6334 46.8978 55.616V55.096C47.2098 55.1134 47.5738 55.1307 47.9898 55.148C48.4058 55.148 48.8391 55.1567 49.2898 55.174C49.7578 55.174 50.1824 55.174 50.5638 55.174C51.1358 55.174 51.6471 55.1654 52.0978 55.148C52.5658 55.1307 52.9558 55.1134 53.2678 55.096V55.616C52.8864 55.6334 52.6004 55.694 52.4098 55.798C52.2191 55.902 52.0891 56.11 52.0198 56.422C51.9678 56.734 51.9418 57.2107 51.9418 57.852V63H51.4218C51.4044 62.7054 51.3351 62.3847 51.2138 62.038C51.1098 61.6914 50.9451 61.518 50.7198 61.518C50.6158 61.518 50.5118 61.544 50.4078 61.596C50.3038 61.648 50.1218 61.7694 49.8618 61.96C49.2898 62.3934 48.6831 62.74 48.0418 63C47.4004 63.2427 46.6551 63.364 45.8058 63.364C44.0204 63.364 42.4864 63 41.2038 62.272C39.9384 61.5267 38.9678 60.4607 38.2918 59.074C37.6158 57.6874 37.2778 56.032 37.2778 54.108C37.2778 52.08 37.6418 50.3294 38.3698 48.856C39.0978 47.3827 40.0858 46.2474 41.3338 45.45C42.5991 44.6354 44.0378 44.228 45.6498 44.228ZM66.713 49.324V60.192C66.713 60.972 66.8517 61.5527 67.129 61.934C67.4237 62.298 67.9437 62.48 68.689 62.48V63.026C68.1517 62.974 67.6144 62.948 67.077 62.948C66.5744 62.948 66.089 62.974 65.621 63.026C65.1704 63.078 64.7544 63.1734 64.373 63.312V60.244C63.9397 61.3707 63.3244 62.1767 62.527 62.662C61.747 63.13 60.941 63.364 60.109 63.364C59.5024 63.364 58.9737 63.2774 58.523 63.104C58.0724 62.9307 57.6997 62.688 57.405 62.376C57.0757 62.0294 56.8504 61.5787 56.729 61.024C56.6077 60.4694 56.547 59.7847 56.547 58.97V52.444C56.547 51.664 56.4084 51.092 56.131 50.728C55.8537 50.3467 55.3337 50.156 54.571 50.156V49.61C55.1257 49.662 55.663 49.688 56.183 49.688C56.6857 49.688 57.1624 49.662 57.613 49.61C58.081 49.5407 58.5057 49.4454 58.887 49.324V59.542C58.887 60.0794 58.9217 60.5734 58.991 61.024C59.0604 61.4747 59.2337 61.8387 59.511 62.116C59.7884 62.3934 60.239 62.532 60.863 62.532C61.539 62.532 62.137 62.324 62.657 61.908C63.1944 61.492 63.6104 60.9287 63.905 60.218C64.217 59.5074 64.373 58.71 64.373 57.826V52.444C64.373 51.664 64.2344 51.092 63.957 50.728C63.6797 50.3467 63.1597 50.156 62.397 50.156V49.61C62.9517 49.662 63.489 49.688 64.009 49.688C64.5117 49.688 64.9884 49.662 65.439 49.61C65.907 49.5407 66.3317 49.4454 66.713 49.324ZM78.7525 49.246C79.4111 49.246 79.9571 49.3327 80.3905 49.506C80.8411 49.6794 81.2138 49.922 81.5085 50.234C81.8378 50.5807 82.0718 51.014 82.2105 51.534C82.3491 52.054 82.4185 52.756 82.4185 53.64V60.582C82.4185 61.31 82.5658 61.804 82.8605 62.064C83.1725 62.324 83.6838 62.454 84.3945 62.454V63C84.0998 62.9827 83.6491 62.9654 83.0425 62.948C82.4358 62.9134 81.8465 62.896 81.2745 62.896C80.7025 62.896 80.1391 62.9134 79.5845 62.948C79.0471 62.9654 78.6398 62.9827 78.3625 63V62.454C78.9865 62.454 79.4285 62.324 79.6885 62.064C79.9485 61.804 80.0785 61.31 80.0785 60.582V53.068C80.0785 52.5307 80.0351 52.0367 79.9485 51.586C79.8618 51.1354 79.6625 50.7714 79.3505 50.494C79.0558 50.2167 78.5965 50.078 77.9725 50.078C77.2445 50.078 76.6031 50.286 76.0485 50.702C75.5111 51.118 75.0865 51.69 74.7745 52.418C74.4798 53.1287 74.3325 53.926 74.3325 54.81V60.582C74.3325 61.31 74.4625 61.804 74.7225 62.064C74.9825 62.324 75.4245 62.454 76.0485 62.454V63C75.7711 62.9827 75.3551 62.9654 74.8005 62.948C74.2631 62.9134 73.7085 62.896 73.1365 62.896C72.5645 62.896 71.9751 62.9134 71.3685 62.948C70.7618 62.9654 70.3111 62.9827 70.0165 63V62.454C70.7271 62.454 71.2298 62.324 71.5245 62.064C71.8365 61.804 71.9925 61.31 71.9925 60.582V52.444C71.9925 51.664 71.8538 51.092 71.5765 50.728C71.2991 50.3467 70.7791 50.156 70.0165 50.156V49.61C70.5711 49.662 71.1085 49.688 71.6285 49.688C72.1311 49.688 72.6078 49.662 73.0585 49.61C73.5265 49.5407 73.9511 49.4454 74.3325 49.324V52.392C74.7831 51.2134 75.4071 50.3987 76.2045 49.948C77.0191 49.48 77.8685 49.246 78.7525 49.246ZM97.3601 42.616V60.166C97.3601 60.946 97.4988 61.5267 97.7761 61.908C98.0708 62.272 98.5908 62.454 99.3361 62.454V63C98.7988 62.948 98.2615 62.922 97.7241 62.922C97.2215 62.922 96.7361 62.948 96.2681 63C95.8175 63.052 95.4015 63.1474 95.0201 63.286V45.736C95.0201 44.956 94.8815 44.384 94.6041 44.02C94.3268 43.6387 93.8068 43.448 93.0441 43.448V42.902C93.5988 42.954 94.1361 42.98 94.6561 42.98C95.1588 42.98 95.6355 42.954 96.0861 42.902C96.5541 42.8327 96.9788 42.7374 97.3601 42.616ZM91.9001 49.246C92.6628 49.246 93.3735 49.428 94.0321 49.792C94.7081 50.156 95.1588 50.78 95.3841 51.664L95.0461 51.924C94.8035 51.196 94.4221 50.6674 93.9021 50.338C93.3995 50.0087 92.8015 49.844 92.1081 49.844C91.0855 49.844 90.2275 50.3727 89.5341 51.43C88.8581 52.4874 88.5288 54.1167 88.5461 56.318C88.5461 57.722 88.6761 58.892 88.9361 59.828C89.2135 60.7467 89.6121 61.44 90.1321 61.908C90.6695 62.3587 91.3195 62.584 92.0821 62.584C92.8101 62.584 93.4688 62.272 94.0581 61.648C94.6475 61.024 95.0028 60.1054 95.1241 58.892L95.4361 59.256C95.2975 60.5734 94.8728 61.5874 94.1621 62.298C93.4688 63.0087 92.5241 63.364 91.3281 63.364C90.2535 63.364 89.3088 63.104 88.4941 62.584C87.6968 62.064 87.0815 61.284 86.6481 60.244C86.2321 59.204 86.0241 57.8954 86.0241 56.318C86.0241 54.7407 86.2928 53.432 86.8301 52.392C87.3848 51.3347 88.1041 50.546 88.9881 50.026C89.8895 49.506 90.8601 49.246 91.9001 49.246ZM106.956 49.246C108.481 49.246 109.668 49.714 110.518 50.65C111.384 51.5687 111.818 53.0074 111.818 54.966H102.64L102.614 54.472H109.322C109.356 53.6227 109.287 52.8427 109.114 52.132C108.94 51.404 108.663 50.8234 108.282 50.39C107.918 49.9567 107.441 49.74 106.852 49.74C106.054 49.74 105.344 50.1387 104.72 50.936C104.113 51.7334 103.749 52.9987 103.628 54.732L103.706 54.836C103.671 55.096 103.645 55.382 103.628 55.694C103.61 56.006 103.602 56.318 103.602 56.63C103.602 57.8087 103.792 58.8227 104.174 59.672C104.555 60.5214 105.049 61.1714 105.656 61.622C106.28 62.0554 106.921 62.272 107.58 62.272C108.1 62.272 108.594 62.194 109.062 62.038C109.53 61.8647 109.963 61.5874 110.362 61.206C110.76 60.8247 111.107 60.3134 111.402 59.672L111.922 59.88C111.731 60.452 111.419 61.0067 110.986 61.544C110.552 62.0814 110.006 62.5234 109.348 62.87C108.689 63.1994 107.926 63.364 107.06 63.364C105.812 63.364 104.737 63.078 103.836 62.506C102.952 61.934 102.267 61.1454 101.782 60.14C101.314 59.1174 101.08 57.9474 101.08 56.63C101.08 55.1047 101.322 53.796 101.808 52.704C102.293 51.5947 102.978 50.7454 103.862 50.156C104.746 49.5494 105.777 49.246 106.956 49.246ZM121.876 49.246C122.344 49.246 122.751 49.3414 123.098 49.532C123.462 49.7227 123.739 49.974 123.93 50.286C124.138 50.5807 124.242 50.9187 124.242 51.3C124.242 51.7334 124.103 52.1147 123.826 52.444C123.566 52.7734 123.211 52.938 122.76 52.938C122.396 52.938 122.075 52.8254 121.798 52.6C121.521 52.3574 121.382 52.0194 121.382 51.586C121.382 51.2567 121.469 50.9794 121.642 50.754C121.833 50.5114 122.041 50.3207 122.266 50.182C122.145 50.0087 121.963 49.922 121.72 49.922C121.183 49.922 120.689 50.0867 120.238 50.416C119.787 50.728 119.406 51.1354 119.094 51.638C118.782 52.1407 118.539 52.678 118.366 53.25C118.193 53.8047 118.106 54.3247 118.106 54.81V60.322C118.106 61.1714 118.349 61.7434 118.834 62.038C119.337 62.3154 120.013 62.454 120.862 62.454V63C120.463 62.9827 119.9 62.9654 119.172 62.948C118.444 62.9134 117.673 62.896 116.858 62.896C116.269 62.896 115.679 62.9134 115.09 62.948C114.518 62.9654 114.085 62.9827 113.79 63V62.454C114.501 62.454 115.003 62.324 115.298 62.064C115.61 61.804 115.766 61.31 115.766 60.582V52.444C115.766 51.664 115.627 51.092 115.35 50.728C115.073 50.3467 114.553 50.156 113.79 50.156V49.61C114.345 49.662 114.882 49.688 115.402 49.688C115.905 49.688 116.381 49.662 116.832 49.61C117.3 49.5407 117.725 49.4454 118.106 49.324V52.574C118.297 52.0714 118.565 51.5687 118.912 51.066C119.276 50.546 119.709 50.1127 120.212 49.766C120.715 49.4194 121.269 49.246 121.876 49.246ZM128.942 42.642V52.366C129.393 51.1874 130.017 50.3727 130.814 49.922C131.629 49.4714 132.478 49.246 133.362 49.246C134.021 49.246 134.567 49.3327 135 49.506C135.451 49.6794 135.824 49.922 136.118 50.234C136.448 50.5807 136.682 51.014 136.82 51.534C136.959 52.054 137.028 52.756 137.028 53.64V60.582C137.028 61.31 137.176 61.804 137.47 62.064C137.782 62.324 138.294 62.454 139.004 62.454V63C138.71 62.9827 138.259 62.9654 137.652 62.948C137.046 62.9134 136.456 62.896 135.884 62.896C135.312 62.896 134.749 62.9134 134.194 62.948C133.657 62.9654 133.25 62.9827 132.972 63V62.454C133.596 62.454 134.038 62.324 134.298 62.064C134.558 61.804 134.688 61.31 134.688 60.582V53.068C134.688 52.5307 134.645 52.0367 134.558 51.586C134.472 51.1354 134.272 50.7714 133.96 50.494C133.666 50.2167 133.206 50.078 132.582 50.078C131.872 50.078 131.239 50.2774 130.684 50.676C130.147 51.0747 129.722 51.6294 129.41 52.34C129.098 53.0507 128.942 53.8654 128.942 54.784V60.582C128.942 61.31 129.072 61.804 129.332 62.064C129.592 62.324 130.034 62.454 130.658 62.454V63C130.381 62.9827 129.965 62.9654 129.41 62.948C128.873 62.9134 128.318 62.896 127.746 62.896C127.174 62.896 126.585 62.9134 125.978 62.948C125.372 62.9654 124.921 62.9827 124.626 63V62.454C125.337 62.454 125.84 62.324 126.134 62.064C126.446 61.804 126.602 61.31 126.602 60.582V45.762C126.602 44.982 126.464 44.41 126.186 44.046C125.909 43.6647 125.389 43.474 124.626 43.474V42.928C125.181 42.98 125.718 43.006 126.238 43.006C126.741 43.006 127.218 42.98 127.668 42.928C128.136 42.8587 128.561 42.7634 128.942 42.642ZM151.949 49.324V60.192C151.949 60.972 152.088 61.5527 152.365 61.934C152.66 62.298 153.18 62.48 153.925 62.48V63.026C153.388 62.974 152.851 62.948 152.313 62.948C151.811 62.948 151.325 62.974 150.857 63.026C150.407 63.078 149.991 63.1734 149.609 63.312V60.244C149.176 61.3707 148.561 62.1767 147.763 62.662C146.983 63.13 146.177 63.364 145.345 63.364C144.739 63.364 144.21 63.2774 143.759 63.104C143.309 62.9307 142.936 62.688 142.641 62.376C142.312 62.0294 142.087 61.5787 141.965 61.024C141.844 60.4694 141.783 59.7847 141.783 58.97V52.444C141.783 51.664 141.645 51.092 141.367 50.728C141.09 50.3467 140.57 50.156 139.807 50.156V49.61C140.362 49.662 140.899 49.688 141.419 49.688C141.922 49.688 142.399 49.662 142.849 49.61C143.317 49.5407 143.742 49.4454 144.123 49.324V59.542C144.123 60.0794 144.158 60.5734 144.227 61.024C144.297 61.4747 144.47 61.8387 144.747 62.116C145.025 62.3934 145.475 62.532 146.099 62.532C146.775 62.532 147.373 62.324 147.893 61.908C148.431 61.492 148.847 60.9287 149.141 60.218C149.453 59.5074 149.609 58.71 149.609 57.826V52.444C149.609 51.664 149.471 51.092 149.193 50.728C148.916 50.3467 148.396 50.156 147.633 50.156V49.61C148.188 49.662 148.725 49.688 149.245 49.688C149.748 49.688 150.225 49.662 150.675 49.61C151.143 49.5407 151.568 49.4454 151.949 49.324ZM159.907 49.246C160.6 49.246 161.189 49.3587 161.675 49.584C162.16 49.8094 162.515 50.0174 162.741 50.208C163.313 50.676 163.659 50.364 163.781 49.272H164.379C164.344 49.7574 164.318 50.338 164.301 51.014C164.283 51.6727 164.275 52.5654 164.275 53.692H163.677C163.573 53.0507 163.391 52.4267 163.131 51.82C162.888 51.2134 162.524 50.7194 162.039 50.338C161.553 49.9394 160.921 49.74 160.141 49.74C159.534 49.74 159.023 49.9134 158.607 50.26C158.208 50.5894 158.009 51.0834 158.009 51.742C158.009 52.262 158.165 52.7127 158.477 53.094C158.789 53.458 159.196 53.8047 159.699 54.134C160.201 54.446 160.747 54.7927 161.337 55.174C161.995 55.59 162.593 56.0147 163.131 56.448C163.668 56.8814 164.093 57.358 164.405 57.878C164.734 58.398 164.899 59.0134 164.899 59.724C164.899 60.5214 164.691 61.1887 164.275 61.726C163.859 62.2634 163.313 62.6707 162.637 62.948C161.978 63.2254 161.25 63.364 160.453 63.364C160.071 63.364 159.707 63.3294 159.361 63.26C159.031 63.208 158.711 63.1214 158.399 63C158.225 62.9134 158.043 62.8094 157.853 62.688C157.679 62.5667 157.506 62.4367 157.333 62.298C157.159 62.1594 157.003 62.168 156.865 62.324C156.726 62.4627 156.622 62.7487 156.553 63.182H155.955C155.989 62.6274 156.015 61.9514 156.033 61.154C156.05 60.3567 156.059 59.2994 156.059 57.982H156.657C156.778 58.9527 156.951 59.802 157.177 60.53C157.402 61.258 157.757 61.83 158.243 62.246C158.728 62.6447 159.404 62.844 160.271 62.844C160.617 62.844 160.964 62.766 161.311 62.61C161.675 62.454 161.978 62.194 162.221 61.83C162.463 61.466 162.585 60.9807 162.585 60.374C162.585 59.6114 162.307 58.9874 161.753 58.502C161.198 58.0167 160.496 57.5054 159.647 56.968C159.023 56.5694 158.433 56.1707 157.879 55.772C157.341 55.3734 156.899 54.9227 156.553 54.42C156.223 53.9174 156.059 53.3107 156.059 52.6C156.059 51.82 156.232 51.1874 156.579 50.702C156.943 50.1994 157.419 49.8354 158.009 49.61C158.598 49.3674 159.231 49.246 159.907 49.246ZM173.2 49.246C174.725 49.246 175.912 49.714 176.762 50.65C177.628 51.5687 178.062 53.0074 178.062 54.966H168.884L168.858 54.472H175.566C175.6 53.6227 175.531 52.8427 175.358 52.132C175.184 51.404 174.907 50.8234 174.526 50.39C174.162 49.9567 173.685 49.74 173.096 49.74C172.298 49.74 171.588 50.1387 170.964 50.936C170.357 51.7334 169.993 52.9987 169.872 54.732L169.95 54.836C169.915 55.096 169.889 55.382 169.872 55.694C169.854 56.006 169.846 56.318 169.846 56.63C169.846 57.8087 170.036 58.8227 170.418 59.672C170.799 60.5214 171.293 61.1714 171.9 61.622C172.524 62.0554 173.165 62.272 173.824 62.272C174.344 62.272 174.838 62.194 175.306 62.038C175.774 61.8647 176.207 61.5874 176.606 61.206C177.004 60.8247 177.351 60.3134 177.646 59.672L178.166 59.88C177.975 60.452 177.663 61.0067 177.23 61.544C176.796 62.0814 176.25 62.5234 175.592 62.87C174.933 63.1994 174.17 63.364 173.304 63.364C172.056 63.364 170.981 63.078 170.08 62.506C169.196 61.934 168.511 61.1454 168.026 60.14C167.558 59.1174 167.324 57.9474 167.324 56.63C167.324 55.1047 167.566 53.796 168.052 52.704C168.537 51.5947 169.222 50.7454 170.106 50.156C170.99 49.5494 172.021 49.246 173.2 49.246ZM184.22 45.294V49.636H188.068V50.156H184.22V60.218C184.22 61.0327 184.367 61.6047 184.662 61.934C184.957 62.2634 185.364 62.428 185.884 62.428C186.404 62.428 186.855 62.22 187.236 61.804C187.617 61.3707 187.947 60.6514 188.224 59.646L188.744 59.776C188.571 60.7814 188.224 61.6307 187.704 62.324C187.201 63.0174 186.421 63.364 185.364 63.364C184.775 63.364 184.289 63.286 183.908 63.13C183.527 62.9914 183.189 62.7834 182.894 62.506C182.513 62.1074 182.244 61.6307 182.088 61.076C181.949 60.5214 181.88 59.7847 181.88 58.866V50.156H179.384V49.636H181.88V45.658C182.313 45.6407 182.729 45.606 183.128 45.554C183.527 45.502 183.891 45.4154 184.22 45.294Z" fill="#2E2E2E"/>
</svg>
